<svg width="373" height="41" viewBox="0 0 373 41" fill="none" xmlns="http://www.w3.org/2000/svg">
<path d="M17.4225 0.759997C17.9425 0.759997 18.7225 0.759997 19.7625 0.759997C20.8425 0.719998 21.9225 0.679998 23.0025 0.639999C24.0825 0.599999 25.0425 0.58 25.8825 0.58C26.7625 0.539998 27.3025 0.519997 27.5025 0.519997L27.8025 1.12L27.5625 7.66H26.0625L25.8225 7.42C25.7425 6.5 25.6225 5.78 25.4625 5.26C25.3425 4.74 24.9425 4.36 24.2625 4.12C23.6225 3.88 22.6425 3.74 21.3225 3.7C20.0025 3.66 18.1425 3.64 15.7425 3.64H9.9825L9.8625 5.98C9.8225 6.62 9.7825 7.16 9.7425 7.6C9.7425 8.04 9.7225 8.58 9.6825 9.22C9.6825 9.86 9.6825 10.64 9.6825 11.56C9.6825 12.44 9.6825 14.6 9.6825 18.04C10.8825 18 12.0825 17.98 13.2825 17.98C14.4825 17.98 15.5625 17.96 16.5225 17.92C17.5225 17.88 18.3625 17.8 19.0425 17.68C19.7225 17.52 20.1825 17.3 20.4225 17.02C20.7425 16.7 21.0225 16.38 21.2625 16.06C21.5025 15.74 21.6225 15.28 21.6225 14.68L21.9225 14.38L22.9425 14.26L23.1825 14.38C23.1025 15.3 23.0225 16.1 22.9425 16.78C22.9025 17.46 22.8825 18.24 22.8825 19.12C22.8825 20.08 22.9025 20.98 22.9425 21.82C23.0225 22.62 23.1025 23.5 23.1825 24.46L22.9425 24.58L21.8625 24.46L21.6225 24.28C21.6225 23.64 21.5025 23.06 21.2625 22.54C21.0225 21.98 20.7425 21.52 20.4225 21.16C20.1825 20.92 19.7225 20.74 19.0425 20.62C18.3625 20.5 17.5425 20.42 16.5825 20.38C15.6225 20.34 14.5425 20.32 13.3425 20.32C12.1425 20.32 10.9225 20.32 9.6825 20.32V26.14C9.6825 27.58 9.6825 28.76 9.6825 29.68C9.6825 30.56 9.6825 31.36 9.6825 32.08C9.7225 32.76 9.7625 33.4 9.8025 34C9.8425 34.56 9.9025 35.22 9.9825 35.98C9.9825 36.74 10.3825 37.12 11.1825 37.12H16.2825C18.6825 37.12 20.5625 37.08 21.9225 37C23.3225 36.88 24.3825 36.66 25.1025 36.34C25.8225 36.02 26.3225 35.54 26.6025 34.9C26.9225 34.22 27.2225 33.34 27.5025 32.26L27.7425 32.02H29.3025L28.2225 39.64L27.7425 40.24C27.5425 40.24 27.0825 40.22 26.3625 40.18C25.6425 40.18 24.8225 40.16 23.9025 40.12C23.0225 40.08 22.1225 40.04 21.2025 40C20.3225 40 19.6225 40 19.1025 40H6.9825C6.7025 40 6.2425 40.02 5.6025 40.06C4.9625 40.1 4.3025 40.14 3.6225 40.18C2.9425 40.22 2.2825 40.26 1.6425 40.3C1.0025 40.34 0.5425 40.36 0.2625 40.36L0.1425 40.12L0.3225 39.04L0.6225 38.8C1.2625 38.8 1.8625 38.78 2.4225 38.74C2.9825 38.66 3.4425 38.48 3.8025 38.2C4.1225 37.92 4.4225 37.56 4.7025 37.12C5.0225 36.68 5.2225 35.9 5.3025 34.78C5.3025 34.5 5.3025 34.18 5.3025 33.82C5.3425 33.42 5.3625 32.94 5.3625 32.38C5.4025 31.82 5.4225 31.14 5.4225 30.34C5.4225 29.54 5.4225 28.54 5.4225 27.34V15.16C5.4225 13.76 5.4225 12.58 5.4225 11.62C5.4225 10.66 5.4225 9.84 5.4225 9.16C5.4225 8.48 5.4025 7.9 5.3625 7.42C5.3625 6.94 5.3425 6.46 5.3025 5.98C5.2225 4.9 5.0225 4.14 4.7025 3.7C4.4225 3.22 4.1225 2.84 3.8025 2.56C3.4425 2.28 2.9825 2.12 2.4225 2.08C1.8625 2 1.2625 1.96 0.6225 1.96L0.3225 1.72L0.1425 0.639999L0.2625 0.399998C0.5425 0.399998 1.0025 0.419998 1.6425 0.459998C2.2825 0.499997 2.9625 0.539998 3.6825 0.58C4.4425 0.619999 5.1625 0.659999 5.8425 0.699998C6.5625 0.739998 7.1425 0.759997 7.5825 0.759997H17.4225ZM42.5198 17.56C43.5598 15.84 44.8998 14.4 46.5398 13.24C48.1798 12.08 50.2198 11.5 52.6598 11.5C53.7798 11.5 54.8998 11.66 56.0198 11.98C57.1398 12.3 58.1598 12.8 59.0798 13.48C60.0398 14.16 60.8198 15.04 61.4198 16.12C62.0598 17.16 62.4798 18.4 62.6798 19.84C62.7998 20.88 62.8598 21.98 62.8598 23.14C62.8998 24.3 62.9198 25.46 62.9198 26.62C62.9198 28.06 62.9198 29.52 62.9198 31C62.9598 32.44 62.9798 33.88 62.9798 35.32C63.0598 36.24 63.1598 36.92 63.2798 37.36C63.3998 37.76 63.5798 38.06 63.8198 38.26C64.1798 38.58 64.6598 38.78 65.2598 38.86C65.8998 38.9 66.5398 38.92 67.1798 38.92L67.3598 39.16L67.4798 40L67.3598 40.24C66.6798 40.16 65.9198 40.1 65.0798 40.06C64.2398 40.02 63.4198 40 62.6198 40C61.0998 40 59.7198 40.06 58.4798 40.18L58.0598 39.58C58.2198 39.06 58.3398 38.38 58.4198 37.54C58.4998 36.7 58.5598 35.96 58.5998 35.32C58.6798 33.64 58.7398 32 58.7798 30.4C58.8198 28.76 58.8398 27.4 58.8398 26.32C58.8398 25.4 58.7998 24.4 58.7198 23.32C58.6798 22.24 58.5598 21.3 58.3598 20.5C57.9598 18.62 57.1398 17.22 55.8998 16.3C54.6598 15.38 53.2198 14.92 51.5798 14.92C50.2598 14.92 49.0198 15.2 47.8598 15.76C46.7398 16.32 45.7798 17.02 44.9798 17.86C44.1798 18.66 43.5398 19.52 43.0598 20.44C42.6198 21.32 42.3998 22.08 42.3998 22.72V29.5C42.3998 30.38 42.3998 31.1 42.3998 31.66C42.3998 32.22 42.3998 32.7 42.3998 33.1C42.4398 33.5 42.4798 33.88 42.5198 34.24C42.5598 34.56 42.5998 34.92 42.6398 35.32C42.7198 36.16 42.7998 36.8 42.8798 37.24C42.9998 37.64 43.2198 37.98 43.5398 38.26C43.8598 38.54 44.2998 38.72 44.8598 38.8C45.4598 38.88 46.0598 38.92 46.6598 38.92L46.9598 39.22L47.0798 40L46.9598 40.24C46.6798 40.24 46.2598 40.22 45.6998 40.18C45.1398 40.14 44.5398 40.1 43.8998 40.06C43.2598 40.06 42.6598 40.04 42.0998 40C41.5398 40 41.1198 40 40.8398 40H39.9998C39.7198 40 39.2798 40 38.6798 40C38.1198 40.04 37.5198 40.06 36.8798 40.06C36.2798 40.1 35.6798 40.14 35.0798 40.18C34.5198 40.22 34.0998 40.24 33.8198 40.24L33.7598 40L33.8198 39.16L34.0598 38.92C34.6998 38.92 35.3198 38.9 35.9198 38.86C36.5598 38.78 37.0398 38.58 37.3598 38.26C37.6798 37.98 37.8798 37.62 37.9598 37.18C38.0798 36.74 38.1798 36.12 38.2598 35.32C38.2998 34.68 38.3398 34.04 38.3798 33.4C38.4198 32.72 38.4398 31.66 38.4398 30.22V22.84C38.4398 22 38.4398 21.3 38.4398 20.74C38.4398 20.14 38.4198 19.62 38.3798 19.18C38.3798 18.74 38.3598 18.34 38.3198 17.98C38.3198 17.62 38.2998 17.24 38.2598 16.84C38.1798 16.4 38.0598 16.02 37.8998 15.7C37.7398 15.34 37.5998 15.1 37.4798 14.98C37.0798 14.5 36.5798 14.22 35.9798 14.14C35.3798 14.02 34.7598 13.96 34.1198 13.96L33.8798 13.72V12.88L34.1198 12.7H35.1998C35.8798 12.7 36.7398 12.7 37.7798 12.7C38.8198 12.66 39.7198 12.58 40.4798 12.46L42.5798 12.16L42.9398 12.7C42.7398 13.22 42.5998 13.94 42.5198 14.86C42.4398 15.74 42.3798 16.6 42.3398 17.44L42.5198 17.56ZM94.0223 18.82L93.7823 18.64C93.7823 17.72 93.5023 16.98 92.9423 16.42C92.4223 15.82 91.7823 15.36 91.0223 15.04C90.2623 14.72 89.4423 14.5 88.5623 14.38C87.7223 14.26 86.9823 14.2 86.3423 14.2C84.5023 14.2 82.9023 14.54 81.5423 15.22C80.2223 15.86 79.1223 16.74 78.2423 17.86C77.3623 18.94 76.7023 20.2 76.2623 21.64C75.8623 23.04 75.6623 24.48 75.6623 25.96C75.6623 27.48 75.8823 28.94 76.3223 30.34C76.8023 31.74 77.5223 32.98 78.4823 34.06C79.4423 35.14 80.6423 36 82.0823 36.64C83.5223 37.28 85.2423 37.6 87.2423 37.6C88.6023 37.6 90.1023 37.4 91.7423 37C93.4223 36.56 94.8623 36.02 96.0623 35.38L96.6623 35.98L95.7623 37.66C95.3223 37.98 94.7423 38.32 94.0223 38.68C93.3423 39 92.5623 39.32 91.6823 39.64C90.8023 39.92 89.8423 40.16 88.8023 40.36C87.8023 40.56 86.8023 40.66 85.8023 40.66C83.8423 40.66 81.9623 40.32 80.1623 39.64C78.4023 38.92 76.8423 37.94 75.4823 36.7C74.1623 35.42 73.1023 33.9 72.3023 32.14C71.5023 30.34 71.1023 28.36 71.1023 26.2C71.1023 24 71.5023 22 72.3023 20.2C73.1023 18.4 74.2023 16.86 75.6023 15.58C77.0023 14.3 78.6223 13.3 80.4623 12.58C82.3423 11.86 84.3423 11.5 86.4623 11.5C88.3823 11.5 90.1823 11.74 91.8623 12.22C93.5823 12.7 94.8823 13.18 95.7623 13.66L95.9423 14.2L95.2823 18.82H94.0223ZM124.67 34.84C123.63 36.52 122.29 37.92 120.65 39.04C119.05 40.12 117.07 40.66 114.71 40.66C113.55 40.66 112.43 40.52 111.35 40.24C110.31 40 109.33 39.58 108.41 38.98C107.53 38.38 106.77 37.58 106.13 36.58C105.49 35.58 105.03 34.32 104.75 32.8C104.55 31.76 104.45 30.68 104.45 29.56C104.49 28.4 104.49 27.24 104.45 26.08C104.45 25.56 104.43 24.86 104.39 23.98C104.39 23.06 104.39 22.14 104.39 21.22C104.39 20.26 104.39 19.38 104.39 18.58C104.39 17.78 104.39 17.2 104.39 16.84C104.39 16.4 104.29 16.02 104.09 15.7C103.89 15.34 103.73 15.08 103.61 14.92C103.21 14.48 102.71 14.22 102.11 14.14C101.51 14.02 100.89 13.96 100.25 13.96L100.07 13.72V12.88L100.25 12.7H101.33C102.01 12.7 102.87 12.7 103.91 12.7C104.95 12.66 105.85 12.58 106.61 12.46L108.71 12.16L109.07 12.7C108.99 12.86 108.93 13.16 108.89 13.6C108.85 14 108.81 14.44 108.77 14.92C108.73 15.4 108.71 15.86 108.71 16.3C108.71 16.74 108.71 17.08 108.71 17.32C108.71 18 108.69 18.76 108.65 19.6C108.65 20.4 108.63 21.22 108.59 22.06C108.59 22.9 108.57 23.7 108.53 24.46C108.53 25.22 108.53 25.86 108.53 26.38C108.53 27.26 108.55 28.26 108.59 29.38C108.67 30.46 108.81 31.4 109.01 32.2C109.41 34.08 110.23 35.48 111.47 36.4C112.71 37.32 114.15 37.78 115.79 37.78C117.03 37.78 118.17 37.54 119.21 37.06C120.25 36.54 121.15 35.92 121.91 35.2C122.71 34.48 123.35 33.72 123.83 32.92C124.35 32.08 124.69 31.32 124.85 30.64V22.84C124.85 22 124.83 21.3 124.79 20.74C124.79 20.14 124.77 19.62 124.73 19.18C124.73 18.74 124.71 18.34 124.67 17.98C124.67 17.62 124.65 17.24 124.61 16.84C124.53 16.4 124.41 16.02 124.25 15.7C124.13 15.34 124.01 15.1 123.89 14.98C123.49 14.5 122.99 14.22 122.39 14.14C121.79 14.02 121.17 13.96 120.53 13.96L120.29 13.72V12.88L120.53 12.7H121.61C122.29 12.7 123.15 12.7 124.19 12.7C125.23 12.66 126.11 12.58 126.83 12.46L128.93 12.16L129.29 12.7C129.21 12.86 129.15 13.16 129.11 13.6C129.07 14 129.03 14.44 128.99 14.92C128.95 15.4 128.93 15.86 128.93 16.3C128.93 16.74 128.93 17.08 128.93 17.32C128.93 17.64 128.91 17.94 128.87 18.22C128.87 18.5 128.87 18.84 128.87 19.24C128.87 19.64 128.85 20.12 128.81 20.68C128.81 21.2 128.81 21.9 128.81 22.78V29.5C128.81 30.38 128.81 31.1 128.81 31.66C128.85 32.22 128.87 32.7 128.87 33.1C128.91 33.5 128.93 33.88 128.93 34.24C128.97 34.56 128.99 34.92 128.99 35.32C129.07 36.24 129.17 36.92 129.29 37.36C129.41 37.76 129.61 38.06 129.89 38.26C130.21 38.58 130.67 38.78 131.27 38.86C131.91 38.9 132.55 38.92 133.19 38.92L133.43 39.16L133.55 40L133.43 40.24C132.71 40.16 131.93 40.1 131.09 40.06C130.25 40.02 129.43 40 128.63 40C127.11 40 125.73 40.06 124.49 40.18L124.13 39.58C124.25 39.06 124.37 38.38 124.49 37.54C124.65 36.7 124.77 35.84 124.85 34.96L124.67 34.84ZM163.648 23.86L162.688 24.28C160.528 24.28 158.308 24.3 156.028 24.34C153.748 24.38 151.508 24.4 149.308 24.4H142.228C142.188 24.68 142.168 24.96 142.168 25.24C142.168 25.48 142.168 25.72 142.168 25.96C142.168 27.48 142.388 28.94 142.828 30.34C143.268 31.7 143.948 32.9 144.868 33.94C145.828 34.98 147.048 35.82 148.528 36.46C150.008 37.06 151.808 37.36 153.928 37.36C155.168 37.36 156.488 37.24 157.888 37C159.328 36.72 160.648 36.24 161.848 35.56L162.448 35.92V37L161.848 37.66C160.888 38.42 159.528 39.12 157.768 39.76C156.008 40.36 154.048 40.66 151.888 40.66C149.768 40.66 147.828 40.32 146.068 39.64C144.348 38.92 142.848 37.92 141.568 36.64C140.328 35.36 139.348 33.84 138.628 32.08C137.948 30.32 137.608 28.36 137.608 26.2C137.608 24 137.968 22 138.688 20.2C139.408 18.4 140.388 16.86 141.628 15.58C142.908 14.3 144.388 13.3 146.068 12.58C147.788 11.86 149.628 11.5 151.588 11.5C152.628 11.5 153.788 11.64 155.068 11.92C156.388 12.2 157.648 12.74 158.848 13.54C160.048 14.3 161.128 15.4 162.088 16.84C163.048 18.24 163.708 20.1 164.068 22.42L163.648 23.86ZM151.648 14.2C150.368 14.2 149.208 14.42 148.168 14.86C147.168 15.26 146.268 15.82 145.468 16.54C144.708 17.22 144.068 18.04 143.548 19C143.068 19.92 142.728 20.9 142.528 21.94H144.868C147.028 21.94 149.128 21.92 151.168 21.88C153.208 21.8 155.348 21.7 157.588 21.58C158.108 21.54 158.448 21.4 158.608 21.16C158.808 20.92 158.908 20.64 158.908 20.32C158.908 20.08 158.888 19.86 158.848 19.66C158.808 19.46 158.748 19.26 158.668 19.06C158.228 17.54 157.408 16.36 156.208 15.52C155.008 14.64 153.488 14.2 151.648 14.2ZM177.051 17.56C178.091 15.84 179.431 14.4 181.071 13.24C182.711 12.08 184.751 11.5 187.191 11.5C188.311 11.5 189.431 11.66 190.551 11.98C191.671 12.3 192.691 12.8 193.611 13.48C194.571 14.16 195.351 15.04 195.951 16.12C196.591 17.16 197.011 18.4 197.211 19.84C197.331 20.88 197.391 21.98 197.391 23.14C197.431 24.3 197.451 25.46 197.451 26.62C197.451 28.06 197.451 29.52 197.451 31C197.491 32.44 197.511 33.88 197.511 35.32C197.591 36.24 197.691 36.92 197.811 37.36C197.931 37.76 198.111 38.06 198.351 38.26C198.711 38.58 199.191 38.78 199.791 38.86C200.431 38.9 201.071 38.92 201.711 38.92L201.891 39.16L202.011 40L201.891 40.24C201.211 40.16 200.451 40.1 199.611 40.06C198.771 40.02 197.951 40 197.151 40C195.631 40 194.251 40.06 193.011 40.18L192.591 39.58C192.751 39.06 192.871 38.38 192.951 37.54C193.031 36.7 193.091 35.96 193.131 35.32C193.211 33.64 193.271 32 193.311 30.4C193.351 28.76 193.371 27.4 193.371 26.32C193.371 25.4 193.331 24.4 193.251 23.32C193.211 22.24 193.091 21.3 192.891 20.5C192.491 18.62 191.671 17.22 190.431 16.3C189.191 15.38 187.751 14.92 186.111 14.92C184.791 14.92 183.551 15.2 182.391 15.76C181.271 16.32 180.311 17.02 179.511 17.86C178.711 18.66 178.071 19.52 177.591 20.44C177.151 21.32 176.931 22.08 176.931 22.72V29.5C176.931 30.38 176.931 31.1 176.931 31.66C176.931 32.22 176.931 32.7 176.931 33.1C176.971 33.5 177.011 33.88 177.051 34.24C177.091 34.56 177.131 34.92 177.171 35.32C177.251 36.16 177.331 36.8 177.411 37.24C177.531 37.64 177.751 37.98 178.071 38.26C178.391 38.54 178.831 38.72 179.391 38.8C179.991 38.88 180.591 38.92 181.191 38.92L181.491 39.22L181.611 40L181.491 40.24C181.211 40.24 180.791 40.22 180.231 40.18C179.671 40.14 179.071 40.1 178.431 40.06C177.791 40.06 177.191 40.04 176.631 40C176.071 40 175.651 40 175.371 40H174.531C174.251 40 173.811 40 173.211 40C172.651 40.04 172.051 40.06 171.411 40.06C170.811 40.1 170.211 40.14 169.611 40.18C169.051 40.22 168.631 40.24 168.351 40.24L168.291 40L168.351 39.16L168.591 38.92C169.231 38.92 169.851 38.9 170.451 38.86C171.091 38.78 171.571 38.58 171.891 38.26C172.211 37.98 172.411 37.62 172.491 37.18C172.611 36.74 172.711 36.12 172.791 35.32C172.831 34.68 172.871 34.04 172.911 33.4C172.951 32.72 172.971 31.66 172.971 30.22V22.84C172.971 22 172.971 21.3 172.971 20.74C172.971 20.14 172.951 19.62 172.911 19.18C172.911 18.74 172.891 18.34 172.851 17.98C172.851 17.62 172.831 17.24 172.791 16.84C172.711 16.4 172.591 16.02 172.431 15.7C172.271 15.34 172.131 15.1 172.011 14.98C171.611 14.5 171.111 14.22 170.511 14.14C169.911 14.02 169.291 13.96 168.651 13.96L168.411 13.72V12.88L168.651 12.7H169.731C170.411 12.7 171.271 12.7 172.311 12.7C173.351 12.66 174.251 12.58 175.011 12.46L177.111 12.16L177.471 12.7C177.271 13.22 177.131 13.94 177.051 14.86C176.971 15.74 176.911 16.6 176.871 17.44L177.051 17.56ZM220.694 15.22H212.894C212.894 17.82 212.874 20.22 212.834 22.42C212.834 24.62 212.834 26.56 212.834 28.24C212.834 29.88 212.814 31.2 212.774 32.2C212.774 33.2 212.774 33.82 212.774 34.06C212.774 35.62 213.074 36.66 213.674 37.18C214.274 37.7 214.974 37.96 215.774 37.96C216.454 37.96 217.234 37.84 218.114 37.6C219.034 37.32 219.774 37.02 220.334 36.7L220.874 37.12L220.334 38.8C219.414 39.44 218.374 39.9 217.214 40.18C216.094 40.5 215.094 40.66 214.214 40.66C212.174 40.66 210.734 40.1 209.894 38.98C209.054 37.86 208.634 36.42 208.634 34.66C208.634 34.3 208.654 33.56 208.694 32.44C208.734 31.32 208.774 29.92 208.814 28.24C208.854 26.56 208.894 24.62 208.934 22.42C208.974 20.22 208.994 17.82 208.994 15.22H204.674L204.434 14.92V13.78L204.674 13.54L208.994 12.7C208.994 11.3 208.954 9.88 208.874 8.44C208.834 6.96 208.774 5.52 208.694 4.12L209.114 3.76L209.954 3.7C210.274 3.66 210.794 3.58 211.514 3.46C212.234 3.34 212.734 3.2 213.014 3.04L213.554 3.28C213.434 3.84 213.334 4.5 213.254 5.26C213.174 5.98 213.094 6.76 213.014 7.6C212.974 8.44 212.934 9.3 212.894 10.18C212.894 11.06 212.894 11.9 212.894 12.7L220.694 12.34L220.994 12.58V14.92L220.694 15.22ZM233.124 18.76C233.524 18 233.964 17.2 234.444 16.36C234.964 15.52 235.544 14.74 236.184 14.02C236.824 13.3 237.544 12.7 238.344 12.22C239.184 11.74 240.124 11.5 241.164 11.5C241.884 11.5 242.684 11.62 243.564 11.86C244.484 12.06 245.104 12.34 245.424 12.7L245.904 13.24L245.184 17.86H243.204C243.084 17.3 242.764 16.8 242.244 16.36C241.764 15.88 241.004 15.64 239.964 15.64C238.964 15.64 238.044 15.94 237.204 16.54C236.364 17.1 235.624 17.82 234.984 18.7C234.384 19.58 233.904 20.52 233.544 21.52C233.224 22.48 233.064 23.36 233.064 24.16V29.5C233.064 30.38 233.064 31.1 233.064 31.66C233.104 32.18 233.124 32.64 233.124 33.04C233.164 33.4 233.184 33.72 233.184 34C233.224 34.24 233.244 34.5 233.244 34.78L233.304 35.32C233.384 35.92 233.464 36.5 233.544 37.06C233.664 37.58 233.884 37.98 234.204 38.26C234.404 38.42 234.684 38.54 235.044 38.62C235.444 38.7 235.844 38.76 236.244 38.8C236.684 38.84 237.104 38.88 237.504 38.92C237.904 38.92 238.224 38.92 238.464 38.92L238.764 39.22L238.884 40L238.764 40.24C238.484 40.24 238.024 40.22 237.384 40.18C236.784 40.14 236.144 40.1 235.464 40.06C234.784 40.06 234.124 40.04 233.484 40C232.884 40 232.444 40 232.164 40H230.724C230.444 40 230.004 40 229.404 40C228.844 40.04 228.244 40.06 227.604 40.06C226.964 40.1 226.344 40.14 225.744 40.18C225.184 40.22 224.764 40.24 224.484 40.24L224.424 40L224.484 39.16L224.724 38.92C225.364 38.92 225.984 38.9 226.584 38.86C227.224 38.78 227.704 38.58 228.024 38.26C228.344 37.98 228.544 37.62 228.624 37.18C228.744 36.74 228.844 36.12 228.924 35.32L228.984 34.78C229.024 34.38 229.044 33.88 229.044 33.28C229.084 32.68 229.104 31.66 229.104 30.22V22.84C229.104 22 229.104 21.3 229.104 20.74C229.104 20.14 229.084 19.62 229.044 19.18C229.044 18.74 229.024 18.34 228.984 17.98C228.984 17.62 228.964 17.24 228.924 16.84C228.844 16.4 228.724 16.02 228.564 15.7C228.404 15.34 228.264 15.1 228.144 14.98C227.744 14.5 227.244 14.22 226.644 14.14C226.044 14.02 225.424 13.96 224.784 13.96L224.544 13.72V12.88L224.784 12.7H225.864C226.544 12.7 227.404 12.7 228.444 12.7C229.484 12.66 230.384 12.58 231.144 12.46L233.244 12.16L233.604 12.7C233.364 13.54 233.184 14.5 233.064 15.58C232.984 16.66 232.944 17.7 232.944 18.7L233.124 18.76ZM266.202 39.58C266.322 39.14 266.402 38.48 266.442 37.6C266.522 36.72 266.622 35.9 266.742 35.14L266.682 34.96C266.162 35.68 265.542 36.38 264.822 37.06C264.102 37.74 263.302 38.36 262.422 38.92C261.582 39.44 260.662 39.86 259.662 40.18C258.702 40.5 257.682 40.66 256.602 40.66C255.362 40.66 254.262 40.44 253.302 40C252.342 39.56 251.542 38.98 250.902 38.26C250.262 37.54 249.782 36.7 249.462 35.74C249.142 34.78 248.982 33.78 248.982 32.74C248.982 31.26 249.322 29.98 250.002 28.9C250.682 27.78 251.582 26.86 252.702 26.14C253.742 25.5 254.962 24.98 256.362 24.58C257.802 24.18 259.182 23.9 260.502 23.74C261.862 23.54 263.082 23.42 264.162 23.38C265.242 23.3 265.962 23.26 266.322 23.26H267.162C267.122 21.78 267.042 20.62 266.922 19.78C266.802 18.9 266.642 18.18 266.442 17.62C266.002 16.42 265.242 15.56 264.162 15.04C263.082 14.48 261.782 14.2 260.262 14.2C259.622 14.2 258.922 14.26 258.162 14.38C257.442 14.5 256.742 14.72 256.062 15.04C255.422 15.36 254.862 15.82 254.382 16.42C253.902 16.98 253.622 17.72 253.542 18.64L253.302 18.82H251.982L251.442 14.38L251.622 14.02C251.822 13.78 252.242 13.52 252.882 13.24C253.522 12.96 254.262 12.7 255.102 12.46C255.982 12.18 256.942 11.96 257.982 11.8C259.062 11.6 260.122 11.5 261.162 11.5C262.602 11.5 263.942 11.7 265.182 12.1C266.422 12.46 267.482 13.02 268.362 13.78C269.282 14.54 270.002 15.5 270.522 16.66C271.042 17.78 271.302 19.1 271.302 20.62C271.302 22.3 271.282 23.8 271.242 25.12C271.242 26.4 271.222 27.6 271.182 28.72C271.142 29.8 271.102 30.88 271.062 31.96C271.062 33 271.062 34.12 271.062 35.32C271.142 36.24 271.242 36.92 271.362 37.36C271.482 37.76 271.682 38.06 271.962 38.26C272.282 38.58 272.742 38.78 273.342 38.86C273.982 38.9 274.622 38.92 275.262 38.92L275.502 39.16L275.562 40L275.502 40.24C274.782 40.16 274.002 40.1 273.162 40.06C272.322 40.02 271.502 40 270.702 40C269.182 40 267.802 40.06 266.562 40.18L266.202 39.58ZM266.202 33.1C266.322 32.9 266.442 32.66 266.562 32.38C266.722 32.1 266.822 31.76 266.862 31.36L267.162 25.36H266.622C265.022 25.36 263.422 25.46 261.822 25.66C260.222 25.82 258.782 26.16 257.502 26.68C256.262 27.2 255.242 27.92 254.442 28.84C253.642 29.76 253.242 30.94 253.242 32.38C253.242 33.9 253.682 35.12 254.562 36.04C255.442 36.92 256.582 37.36 257.982 37.36C258.822 37.36 259.662 37.22 260.502 36.94C261.342 36.66 262.122 36.3 262.842 35.86C263.602 35.42 264.262 34.96 264.822 34.48C265.422 34 265.882 33.54 266.202 33.1ZM287.207 17.56C288.247 15.84 289.587 14.4 291.227 13.24C292.867 12.08 294.907 11.5 297.347 11.5C298.467 11.5 299.587 11.66 300.707 11.98C301.827 12.3 302.847 12.8 303.767 13.48C304.727 14.16 305.507 15.04 306.107 16.12C306.747 17.16 307.167 18.4 307.367 19.84C307.487 20.88 307.547 21.98 307.547 23.14C307.587 24.3 307.607 25.46 307.607 26.62C307.607 28.06 307.607 29.52 307.607 31C307.647 32.44 307.667 33.88 307.667 35.32C307.747 36.24 307.847 36.92 307.967 37.36C308.087 37.76 308.267 38.06 308.507 38.26C308.867 38.58 309.347 38.78 309.947 38.86C310.587 38.9 311.227 38.92 311.867 38.92L312.047 39.16L312.167 40L312.047 40.24C311.367 40.16 310.607 40.1 309.767 40.06C308.927 40.02 308.107 40 307.307 40C305.787 40 304.407 40.06 303.167 40.18L302.747 39.58C302.907 39.06 303.027 38.38 303.107 37.54C303.187 36.7 303.247 35.96 303.287 35.32C303.367 33.64 303.427 32 303.467 30.4C303.507 28.76 303.527 27.4 303.527 26.32C303.527 25.4 303.487 24.4 303.407 23.32C303.367 22.24 303.247 21.3 303.047 20.5C302.647 18.62 301.827 17.22 300.587 16.3C299.347 15.38 297.907 14.92 296.267 14.92C294.947 14.92 293.707 15.2 292.547 15.76C291.427 16.32 290.467 17.02 289.667 17.86C288.867 18.66 288.227 19.52 287.747 20.44C287.307 21.32 287.087 22.08 287.087 22.72V29.5C287.087 30.38 287.087 31.1 287.087 31.66C287.087 32.22 287.087 32.7 287.087 33.1C287.127 33.5 287.167 33.88 287.207 34.24C287.247 34.56 287.287 34.92 287.327 35.32C287.407 36.16 287.487 36.8 287.567 37.24C287.687 37.64 287.907 37.98 288.227 38.26C288.547 38.54 288.987 38.72 289.547 38.8C290.147 38.88 290.747 38.92 291.347 38.92L291.647 39.22L291.767 40L291.647 40.24C291.367 40.24 290.947 40.22 290.387 40.18C289.827 40.14 289.227 40.1 288.587 40.06C287.947 40.06 287.347 40.04 286.787 40C286.227 40 285.807 40 285.527 40H284.687C284.407 40 283.967 40 283.367 40C282.807 40.04 282.207 40.06 281.567 40.06C280.967 40.1 280.367 40.14 279.767 40.18C279.207 40.22 278.787 40.24 278.507 40.24L278.447 40L278.507 39.16L278.747 38.92C279.387 38.92 280.007 38.9 280.607 38.86C281.247 38.78 281.727 38.58 282.047 38.26C282.367 37.98 282.567 37.62 282.647 37.18C282.767 36.74 282.867 36.12 282.947 35.32C282.987 34.68 283.027 34.04 283.067 33.4C283.107 32.72 283.127 31.66 283.127 30.22V22.84C283.127 22 283.127 21.3 283.127 20.74C283.127 20.14 283.107 19.62 283.067 19.18C283.067 18.74 283.047 18.34 283.007 17.98C283.007 17.62 282.987 17.24 282.947 16.84C282.867 16.4 282.747 16.02 282.587 15.7C282.427 15.34 282.287 15.1 282.167 14.98C281.767 14.5 281.267 14.22 280.667 14.14C280.067 14.02 279.447 13.96 278.807 13.96L278.567 13.72V12.88L278.807 12.7H279.887C280.567 12.7 281.427 12.7 282.467 12.7C283.507 12.66 284.407 12.58 285.167 12.46L287.267 12.16L287.627 12.7C287.427 13.22 287.287 13.94 287.207 14.86C287.127 15.74 287.067 16.6 287.027 17.44L287.207 17.56ZM330.55 11.5C332.91 11.5 335.01 11.92 336.85 12.76C338.69 13.56 340.23 14.66 341.47 16.06C342.75 17.42 343.71 19 344.35 20.8C345.03 22.6 345.37 24.46 345.37 26.38C345.37 28.22 345.07 30 344.47 31.72C343.87 33.44 342.95 34.96 341.71 36.28C340.47 37.6 338.93 38.66 337.09 39.46C335.25 40.26 333.11 40.66 330.67 40.66C328.15 40.66 325.95 40.24 324.07 39.4C322.19 38.56 320.63 37.46 319.39 36.1C318.19 34.74 317.29 33.2 316.69 31.48C316.09 29.72 315.79 27.92 315.79 26.08C315.79 24.12 316.13 22.26 316.81 20.5C317.49 18.74 318.45 17.2 319.69 15.88C320.97 14.52 322.51 13.46 324.31 12.7C326.15 11.9 328.23 11.5 330.55 11.5ZM330.61 38.32C332.29 38.32 333.77 37.98 335.05 37.3C336.33 36.62 337.39 35.72 338.23 34.6C339.07 33.48 339.69 32.22 340.09 30.82C340.53 29.38 340.75 27.9 340.75 26.38C340.75 24.94 340.51 23.48 340.03 22C339.59 20.52 338.93 19.2 338.05 18.04C337.17 16.84 336.09 15.88 334.81 15.16C333.53 14.4 332.05 14.02 330.37 14.02C328.61 14.02 327.09 14.38 325.81 15.1C324.57 15.78 323.53 16.68 322.69 17.8C321.89 18.92 321.29 20.2 320.89 21.64C320.49 23.08 320.29 24.52 320.29 25.96C320.29 27.44 320.51 28.92 320.95 30.4C321.43 31.84 322.11 33.16 322.99 34.36C323.87 35.52 324.95 36.48 326.23 37.24C327.51 37.96 328.97 38.32 330.61 38.32ZM364.27 24.1C365.95 24.46 367.29 24.96 368.29 25.6C369.33 26.2 370.13 26.86 370.69 27.58C371.25 28.3 371.61 29.04 371.77 29.8C371.97 30.52 372.07 31.2 372.07 31.84C372.07 33.12 371.81 34.3 371.29 35.38C370.77 36.46 370.01 37.4 369.01 38.2C368.05 38.96 366.87 39.56 365.47 40C364.07 40.44 362.49 40.66 360.73 40.66C358.77 40.66 356.93 40.44 355.21 40C353.53 39.52 352.19 39.02 351.19 38.5L351.07 37.96L351.97 31.78H353.35L353.53 32.02C353.53 33.94 354.13 35.46 355.33 36.58C356.53 37.66 358.27 38.2 360.55 38.2C361.91 38.2 363.05 38.04 363.97 37.72C364.89 37.4 365.61 36.98 366.13 36.46C366.69 35.94 367.09 35.38 367.33 34.78C367.57 34.18 367.69 33.6 367.69 33.04C367.69 32.68 367.67 32.28 367.63 31.84C367.59 31.36 367.43 30.9 367.15 30.46C366.87 29.98 366.45 29.54 365.89 29.14C365.33 28.7 364.53 28.34 363.49 28.06L357.73 26.62C356.41 26.3 355.33 25.88 354.49 25.36C353.65 24.84 352.99 24.28 352.51 23.68C352.03 23.04 351.69 22.38 351.49 21.7C351.29 20.98 351.19 20.26 351.19 19.54C351.19 18.22 351.45 17.06 351.97 16.06C352.49 15.02 353.19 14.18 354.07 13.54C354.99 12.86 356.05 12.36 357.25 12.04C358.45 11.68 359.75 11.5 361.15 11.5C363.03 11.5 364.75 11.74 366.31 12.22C367.91 12.7 369.15 13.18 370.03 13.66L370.21 14.2L369.55 18.82H368.29L368.05 18.64C368.05 17.72 367.79 16.96 367.27 16.36C366.79 15.72 366.19 15.22 365.47 14.86C364.75 14.46 363.99 14.18 363.19 14.02C362.39 13.86 361.69 13.78 361.09 13.78C359.09 13.78 357.65 14.28 356.77 15.28C355.89 16.28 355.45 17.4 355.45 18.64C355.45 19.56 355.75 20.44 356.35 21.28C356.99 22.08 358.21 22.7 360.01 23.14L364.27 24.1Z" fill="white"/>
</svg>
