<svg width="241" height="41" viewBox="0 0 241 41" fill="none" xmlns="http://www.w3.org/2000/svg">
<path d="M40.48 0.639999L40.36 1.72L40.06 1.96C39.42 1.96 38.8 2 38.2 2.08C37.64 2.12 37.2 2.28 36.88 2.56C36.56 2.84 36.26 3.2 35.98 3.64C35.74 4.08 35.58 4.86 35.5 5.98C35.46 6.54 35.42 7.06 35.38 7.54C35.38 8.02 35.36 8.58 35.32 9.22C35.32 9.86 35.32 10.64 35.32 11.56C35.32 12.48 35.32 13.66 35.32 15.1V25.66C35.32 27.9 35.32 29.74 35.32 31.18C35.36 32.62 35.38 33.86 35.38 34.9C35.42 35.9 35.46 36.8 35.5 37.6C35.58 38.4 35.66 39.28 35.74 40.24L35.26 40.54L31.54 40.3L30.94 39.58L9.58 7.6C9.58 8 9.56 8.4 9.52 8.8C9.52 9.2 9.52 9.7 9.52 10.3C9.52 10.86 9.52 11.52 9.52 12.28C9.52 13.04 9.52 13.98 9.52 15.1V26.14C9.52 26.62 9.52 27.26 9.52 28.06C9.52 28.82 9.52 29.62 9.52 30.46C9.56 31.3 9.58 32.12 9.58 32.92C9.62 33.68 9.66 34.3 9.7 34.78C9.78 35.78 9.94 36.54 10.18 37.06C10.46 37.54 10.8 37.92 11.2 38.2C11.52 38.44 11.94 38.6 12.46 38.68C12.98 38.76 13.64 38.8 14.44 38.8L14.74 39.04L14.92 40.12L14.8 40.36C14.52 40.36 14.08 40.34 13.48 40.3C12.92 40.26 12.32 40.22 11.68 40.18C11.04 40.14 10.42 40.1 9.82 40.06C9.26 40.02 8.84 40 8.56 40H7.42C7.14 40 6.68 40.02 6.04 40.06C5.4 40.1 4.74 40.14 4.06 40.18C3.38 40.22 2.72 40.26 2.08 40.3C1.44 40.34 0.98 40.36 0.7 40.36L0.58 40.12L0.76 39.04L1.06 38.8C1.78 38.8 2.38 38.78 2.86 38.74C3.38 38.66 3.84 38.48 4.24 38.2C4.52 38 4.8 37.68 5.08 37.24C5.4 36.76 5.62 35.94 5.74 34.78C5.78 34.5 5.8 34.18 5.8 33.82C5.84 33.42 5.86 32.94 5.86 32.38C5.86 31.82 5.86 31.14 5.86 30.34C5.86 29.54 5.86 28.54 5.86 27.34V15.16C5.86 13.76 5.86 12.58 5.86 11.62C5.86 10.66 5.86 9.84 5.86 9.16C5.86 8.48 5.84 7.9 5.8 7.42C5.8 6.94 5.78 6.46 5.74 5.98C5.66 5.14 5.48 4.44 5.2 3.88C4.92 3.28 4.6 2.84 4.24 2.56C3.88 2.28 3.42 2.12 2.86 2.08C2.34 2 1.74 1.96 1.06 1.96L0.76 1.72L0.58 0.639999L0.7 0.399998C0.98 0.399998 1.38 0.419998 1.9 0.459998C2.46 0.499997 3.02 0.539998 3.58 0.58C4.14 0.619999 4.68 0.659999 5.2 0.699998C5.76 0.739998 6.18 0.759997 6.46 0.759997H8.56C8.88 0.759997 9.32 0.739998 9.88 0.699998C10.48 0.659999 10.96 0.599998 11.32 0.519997L11.62 0.699998C11.78 1.26 12.1 2.04 12.58 3.04C13.1 4 13.7 5.08 14.38 6.28C15.1 7.48 15.86 8.76 16.66 10.12C17.5 11.48 18.34 12.82 19.18 14.14C22.22 19.02 24.86 23 27.1 26.08C29.38 29.16 30.84 31.16 31.48 32.08C31.48 31.8 31.48 31.54 31.48 31.3C31.52 31.06 31.54 30.78 31.54 30.46C31.54 30.14 31.54 29.74 31.54 29.26C31.54 28.78 31.54 28.14 31.54 27.34V15.16C31.54 13.76 31.54 12.58 31.54 11.62C31.54 10.66 31.52 9.84 31.48 9.16C31.48 8.48 31.46 7.9 31.42 7.42C31.42 6.94 31.4 6.46 31.36 5.98C31.28 4.86 31.1 4.08 30.82 3.64C30.54 3.2 30.24 2.84 29.92 2.56C29.56 2.28 29.08 2.12 28.48 2.08C27.92 2 27.32 1.96 26.68 1.96L26.44 1.72L26.26 0.639999L26.38 0.399998C26.66 0.399998 27.06 0.419998 27.58 0.459998C28.1 0.499997 28.62 0.539998 29.14 0.58C29.7 0.619999 30.24 0.659999 30.76 0.699998C31.28 0.739998 31.68 0.759997 31.96 0.759997H34.78C35.06 0.759997 35.46 0.759997 35.98 0.759997C36.5 0.719998 37.04 0.679998 37.6 0.639999C38.16 0.599999 38.7 0.559999 39.22 0.519997C39.74 0.479997 40.14 0.439998 40.42 0.399998L40.48 0.639999ZM58.9366 11.5C61.2966 11.5 63.3966 11.92 65.2366 12.76C67.0766 13.56 68.6166 14.66 69.8566 16.06C71.1366 17.42 72.0966 19 72.7366 20.8C73.4166 22.6 73.7566 24.46 73.7566 26.38C73.7566 28.22 73.4566 30 72.8566 31.72C72.2566 33.44 71.3366 34.96 70.0966 36.28C68.8566 37.6 67.3166 38.66 65.4766 39.46C63.6366 40.26 61.4966 40.66 59.0566 40.66C56.5366 40.66 54.3366 40.24 52.4566 39.4C50.5766 38.56 49.0166 37.46 47.7766 36.1C46.5766 34.74 45.6766 33.2 45.0766 31.48C44.4766 29.72 44.1766 27.92 44.1766 26.08C44.1766 24.12 44.5166 22.26 45.1966 20.5C45.8766 18.74 46.8366 17.2 48.0766 15.88C49.3566 14.52 50.8966 13.46 52.6966 12.7C54.5366 11.9 56.6166 11.5 58.9366 11.5ZM58.9966 38.32C60.6766 38.32 62.1566 37.98 63.4366 37.3C64.7166 36.62 65.7766 35.72 66.6166 34.6C67.4566 33.48 68.0766 32.22 68.4766 30.82C68.9166 29.38 69.1366 27.9 69.1366 26.38C69.1366 24.94 68.8966 23.48 68.4166 22C67.9766 20.52 67.3166 19.2 66.4366 18.04C65.5566 16.84 64.4766 15.88 63.1966 15.16C61.9166 14.4 60.4366 14.02 58.7566 14.02C56.9966 14.02 55.4766 14.38 54.1966 15.1C52.9566 15.78 51.9166 16.68 51.0766 17.8C50.2766 18.92 49.6766 20.2 49.2766 21.64C48.8766 23.08 48.6766 24.52 48.6766 25.96C48.6766 27.44 48.8966 28.92 49.3366 30.4C49.8166 31.84 50.4966 33.16 51.3766 34.36C52.2566 35.52 53.3366 36.48 54.6166 37.24C55.8966 37.96 57.3566 38.32 58.9966 38.32ZM92.657 24.1C94.337 24.46 95.677 24.96 96.677 25.6C97.717 26.2 98.517 26.86 99.077 27.58C99.637 28.3 99.997 29.04 100.157 29.8C100.357 30.52 100.457 31.2 100.457 31.84C100.457 33.12 100.197 34.3 99.677 35.38C99.157 36.46 98.397 37.4 97.397 38.2C96.437 38.96 95.257 39.56 93.857 40C92.457 40.44 90.877 40.66 89.117 40.66C87.157 40.66 85.317 40.44 83.597 40C81.917 39.52 80.577 39.02 79.577 38.5L79.457 37.96L80.357 31.78H81.737L81.917 32.02C81.917 33.94 82.517 35.46 83.717 36.58C84.917 37.66 86.657 38.2 88.937 38.2C90.297 38.2 91.437 38.04 92.357 37.72C93.277 37.4 93.997 36.98 94.517 36.46C95.077 35.94 95.477 35.38 95.717 34.78C95.957 34.18 96.077 33.6 96.077 33.04C96.077 32.68 96.057 32.28 96.017 31.84C95.977 31.36 95.817 30.9 95.537 30.46C95.257 29.98 94.837 29.54 94.277 29.14C93.717 28.7 92.917 28.34 91.877 28.06L86.117 26.62C84.797 26.3 83.717 25.88 82.877 25.36C82.037 24.84 81.377 24.28 80.897 23.68C80.417 23.04 80.077 22.38 79.877 21.7C79.677 20.98 79.577 20.26 79.577 19.54C79.577 18.22 79.837 17.06 80.357 16.06C80.877 15.02 81.577 14.18 82.457 13.54C83.377 12.86 84.437 12.36 85.637 12.04C86.837 11.68 88.137 11.5 89.537 11.5C91.417 11.5 93.137 11.74 94.697 12.22C96.297 12.7 97.537 13.18 98.417 13.66L98.597 14.2L97.937 18.82H96.677L96.437 18.64C96.437 17.72 96.177 16.96 95.657 16.36C95.177 15.72 94.577 15.22 93.857 14.86C93.137 14.46 92.377 14.18 91.577 14.02C90.777 13.86 90.077 13.78 89.477 13.78C87.477 13.78 86.037 14.28 85.157 15.28C84.277 16.28 83.837 17.4 83.837 18.64C83.837 19.56 84.137 20.44 84.737 21.28C85.377 22.08 86.597 22.7 88.397 23.14L92.657 24.1ZM120.284 11.5C122.644 11.5 124.744 11.92 126.584 12.76C128.424 13.56 129.964 14.66 131.204 16.06C132.484 17.42 133.444 19 134.084 20.8C134.764 22.6 135.104 24.46 135.104 26.38C135.104 28.22 134.804 30 134.204 31.72C133.604 33.44 132.684 34.96 131.444 36.28C130.204 37.6 128.664 38.66 126.824 39.46C124.984 40.26 122.844 40.66 120.404 40.66C117.884 40.66 115.684 40.24 113.804 39.4C111.924 38.56 110.364 37.46 109.124 36.1C107.924 34.74 107.024 33.2 106.424 31.48C105.824 29.72 105.524 27.92 105.524 26.08C105.524 24.12 105.864 22.26 106.544 20.5C107.224 18.74 108.184 17.2 109.424 15.88C110.704 14.52 112.244 13.46 114.044 12.7C115.884 11.9 117.964 11.5 120.284 11.5ZM120.344 38.32C122.024 38.32 123.504 37.98 124.784 37.3C126.064 36.62 127.124 35.72 127.964 34.6C128.804 33.48 129.424 32.22 129.824 30.82C130.264 29.38 130.484 27.9 130.484 26.38C130.484 24.94 130.244 23.48 129.764 22C129.324 20.52 128.664 19.2 127.784 18.04C126.904 16.84 125.824 15.88 124.544 15.16C123.264 14.4 121.784 14.02 120.104 14.02C118.344 14.02 116.824 14.38 115.544 15.1C114.304 15.78 113.264 16.68 112.424 17.8C111.624 18.92 111.024 20.2 110.624 21.64C110.224 23.08 110.024 24.52 110.024 25.96C110.024 27.44 110.244 28.92 110.684 30.4C111.164 31.84 111.844 33.16 112.724 34.36C113.604 35.52 114.684 36.48 115.964 37.24C117.244 37.96 118.704 38.32 120.344 38.32ZM155.565 15.22H147.765C147.765 17.82 147.745 20.22 147.705 22.42C147.705 24.62 147.705 26.56 147.705 28.24C147.705 29.88 147.685 31.2 147.645 32.2C147.645 33.2 147.645 33.82 147.645 34.06C147.645 35.62 147.945 36.66 148.545 37.18C149.145 37.7 149.845 37.96 150.645 37.96C151.325 37.96 152.105 37.84 152.985 37.6C153.905 37.32 154.645 37.02 155.205 36.7L155.745 37.12L155.205 38.8C154.285 39.44 153.245 39.9 152.085 40.18C150.965 40.5 149.965 40.66 149.085 40.66C147.045 40.66 145.605 40.1 144.765 38.98C143.925 37.86 143.505 36.42 143.505 34.66C143.505 34.3 143.525 33.56 143.565 32.44C143.605 31.32 143.645 29.92 143.685 28.24C143.725 26.56 143.765 24.62 143.805 22.42C143.845 20.22 143.865 17.82 143.865 15.22H139.545L139.305 14.92V13.78L139.545 13.54L143.865 12.7C143.865 11.3 143.825 9.88 143.745 8.44C143.705 6.96 143.645 5.52 143.565 4.12L143.985 3.76L144.825 3.7C145.145 3.66 145.665 3.58 146.385 3.46C147.105 3.34 147.605 3.2 147.885 3.04L148.425 3.28C148.305 3.84 148.205 4.5 148.125 5.26C148.045 5.98 147.965 6.76 147.885 7.6C147.845 8.44 147.805 9.3 147.765 10.18C147.765 11.06 147.765 11.9 147.765 12.7L155.565 12.34L155.865 12.58V14.92L155.565 15.22ZM167.995 18.76C168.395 18 168.835 17.2 169.315 16.36C169.835 15.52 170.415 14.74 171.055 14.02C171.695 13.3 172.415 12.7 173.215 12.22C174.055 11.74 174.995 11.5 176.035 11.5C176.755 11.5 177.555 11.62 178.435 11.86C179.355 12.06 179.975 12.34 180.295 12.7L180.775 13.24L180.055 17.86H178.075C177.955 17.3 177.635 16.8 177.115 16.36C176.635 15.88 175.875 15.64 174.835 15.64C173.835 15.64 172.915 15.94 172.075 16.54C171.235 17.1 170.495 17.82 169.855 18.7C169.255 19.58 168.775 20.52 168.415 21.52C168.095 22.48 167.935 23.36 167.935 24.16V29.5C167.935 30.38 167.935 31.1 167.935 31.66C167.975 32.18 167.995 32.64 167.995 33.04C168.035 33.4 168.055 33.72 168.055 34C168.095 34.24 168.115 34.5 168.115 34.78L168.175 35.32C168.255 35.92 168.335 36.5 168.415 37.06C168.535 37.58 168.755 37.98 169.075 38.26C169.275 38.42 169.555 38.54 169.915 38.62C170.315 38.7 170.715 38.76 171.115 38.8C171.555 38.84 171.975 38.88 172.375 38.92C172.775 38.92 173.095 38.92 173.335 38.92L173.635 39.22L173.755 40L173.635 40.24C173.355 40.24 172.895 40.22 172.255 40.18C171.655 40.14 171.015 40.1 170.335 40.06C169.655 40.06 168.995 40.04 168.355 40C167.755 40 167.315 40 167.035 40H165.595C165.315 40 164.875 40 164.275 40C163.715 40.04 163.115 40.06 162.475 40.06C161.835 40.1 161.215 40.14 160.615 40.18C160.055 40.22 159.635 40.24 159.355 40.24L159.295 40L159.355 39.16L159.595 38.92C160.235 38.92 160.855 38.9 161.455 38.86C162.095 38.78 162.575 38.58 162.895 38.26C163.215 37.98 163.415 37.62 163.495 37.18C163.615 36.74 163.715 36.12 163.795 35.32L163.855 34.78C163.895 34.38 163.915 33.88 163.915 33.28C163.955 32.68 163.975 31.66 163.975 30.22V22.84C163.975 22 163.975 21.3 163.975 20.74C163.975 20.14 163.955 19.62 163.915 19.18C163.915 18.74 163.895 18.34 163.855 17.98C163.855 17.62 163.835 17.24 163.795 16.84C163.715 16.4 163.595 16.02 163.435 15.7C163.275 15.34 163.135 15.1 163.015 14.98C162.615 14.5 162.115 14.22 161.515 14.14C160.915 14.02 160.295 13.96 159.655 13.96L159.415 13.72V12.88L159.655 12.7H160.735C161.415 12.7 162.275 12.7 163.315 12.7C164.355 12.66 165.255 12.58 166.015 12.46L168.115 12.16L168.475 12.7C168.235 13.54 168.055 14.5 167.935 15.58C167.855 16.66 167.815 17.7 167.815 18.7L167.995 18.76ZM198.976 11.5C201.336 11.5 203.436 11.92 205.276 12.76C207.116 13.56 208.656 14.66 209.896 16.06C211.176 17.42 212.136 19 212.776 20.8C213.456 22.6 213.796 24.46 213.796 26.38C213.796 28.22 213.496 30 212.896 31.72C212.296 33.44 211.376 34.96 210.136 36.28C208.896 37.6 207.356 38.66 205.516 39.46C203.676 40.26 201.536 40.66 199.096 40.66C196.576 40.66 194.376 40.24 192.496 39.4C190.616 38.56 189.056 37.46 187.816 36.1C186.616 34.74 185.716 33.2 185.116 31.48C184.516 29.72 184.216 27.92 184.216 26.08C184.216 24.12 184.556 22.26 185.236 20.5C185.916 18.74 186.876 17.2 188.116 15.88C189.396 14.52 190.936 13.46 192.736 12.7C194.576 11.9 196.656 11.5 198.976 11.5ZM199.036 38.32C200.716 38.32 202.196 37.98 203.476 37.3C204.756 36.62 205.816 35.72 206.656 34.6C207.496 33.48 208.116 32.22 208.516 30.82C208.956 29.38 209.176 27.9 209.176 26.38C209.176 24.94 208.936 23.48 208.456 22C208.016 20.52 207.356 19.2 206.476 18.04C205.596 16.84 204.516 15.88 203.236 15.16C201.956 14.4 200.476 14.02 198.796 14.02C197.036 14.02 195.516 14.38 194.236 15.1C192.996 15.78 191.956 16.68 191.116 17.8C190.316 18.92 189.716 20.2 189.316 21.64C188.916 23.08 188.716 24.52 188.716 25.96C188.716 27.44 188.936 28.92 189.376 30.4C189.856 31.84 190.536 33.16 191.416 34.36C192.296 35.52 193.376 36.48 194.656 37.24C195.936 37.96 197.396 38.32 199.036 38.32ZM232.696 24.1C234.376 24.46 235.716 24.96 236.716 25.6C237.756 26.2 238.556 26.86 239.116 27.58C239.676 28.3 240.036 29.04 240.196 29.8C240.396 30.52 240.496 31.2 240.496 31.84C240.496 33.12 240.236 34.3 239.716 35.38C239.196 36.46 238.436 37.4 237.436 38.2C236.476 38.96 235.296 39.56 233.896 40C232.496 40.44 230.916 40.66 229.156 40.66C227.196 40.66 225.356 40.44 223.636 40C221.956 39.52 220.616 39.02 219.616 38.5L219.496 37.96L220.396 31.78H221.776L221.956 32.02C221.956 33.94 222.556 35.46 223.756 36.58C224.956 37.66 226.696 38.2 228.976 38.2C230.336 38.2 231.476 38.04 232.396 37.72C233.316 37.4 234.036 36.98 234.556 36.46C235.116 35.94 235.516 35.38 235.756 34.78C235.996 34.18 236.116 33.6 236.116 33.04C236.116 32.68 236.096 32.28 236.056 31.84C236.016 31.36 235.856 30.9 235.576 30.46C235.296 29.98 234.876 29.54 234.316 29.14C233.756 28.7 232.956 28.34 231.916 28.06L226.156 26.62C224.836 26.3 223.756 25.88 222.916 25.36C222.076 24.84 221.416 24.28 220.936 23.68C220.456 23.04 220.116 22.38 219.916 21.7C219.716 20.98 219.616 20.26 219.616 19.54C219.616 18.22 219.876 17.06 220.396 16.06C220.916 15.02 221.616 14.18 222.496 13.54C223.416 12.86 224.476 12.36 225.676 12.04C226.876 11.68 228.176 11.5 229.576 11.5C231.456 11.5 233.176 11.74 234.736 12.22C236.336 12.7 237.576 13.18 238.456 13.66L238.636 14.2L237.976 18.82H236.716L236.476 18.64C236.476 17.72 236.216 16.96 235.696 16.36C235.216 15.72 234.616 15.22 233.896 14.86C233.176 14.46 232.416 14.18 231.616 14.02C230.816 13.86 230.116 13.78 229.516 13.78C227.516 13.78 226.076 14.28 225.196 15.28C224.316 16.28 223.876 17.4 223.876 18.64C223.876 19.56 224.176 20.44 224.776 21.28C225.416 22.08 226.636 22.7 228.436 23.14L232.696 24.1Z" fill="white"/>
</svg>
