<svg width="381" height="38" viewBox="0 0 381 38" fill="none" xmlns="http://www.w3.org/2000/svg">
<path d="M9.72492 14.56C10.7649 12.84 12.1049 11.4 13.7449 10.24C15.3849 9.08 17.4249 8.5 19.8649 8.5C20.9849 8.5 22.1049 8.66 23.2249 8.98C24.3449 9.3 25.3649 9.8 26.2849 10.48C27.2449 11.16 28.0249 12.04 28.6249 13.12C29.2649 14.16 29.6849 15.4 29.8849 16.84C30.0049 17.88 30.0649 18.98 30.0649 20.14C30.1049 21.3 30.1249 22.46 30.1249 23.62C30.1249 25.06 30.1249 26.52 30.1249 28C30.1649 29.44 30.1849 30.88 30.1849 32.32C30.2649 33.24 30.3649 33.92 30.4849 34.36C30.6049 34.76 30.7849 35.06 31.0249 35.26C31.3849 35.58 31.8649 35.78 32.4649 35.86C33.1049 35.9 33.7449 35.92 34.3849 35.92L34.5649 36.16L34.6849 37L34.5649 37.24C33.8849 37.16 33.1249 37.1 32.2849 37.06C31.4449 37.02 30.6249 37 29.8249 37C28.3049 37 26.9249 37.06 25.6849 37.18L25.2649 36.58C25.4249 36.06 25.5449 35.38 25.6249 34.54C25.7049 33.7 25.7649 32.96 25.8049 32.32C25.8849 30.64 25.9449 29 25.9849 27.4C26.0249 25.76 26.0449 24.4 26.0449 23.32C26.0449 22.4 26.0049 21.4 25.9249 20.32C25.8849 19.24 25.7649 18.3 25.5649 17.5C25.1649 15.62 24.3449 14.22 23.1049 13.3C21.8649 12.38 20.4249 11.92 18.7849 11.92C17.4649 11.92 16.2249 12.2 15.0649 12.76C13.9449 13.32 12.9849 14.02 12.1849 14.86C11.3849 15.66 10.7449 16.52 10.2649 17.44C9.82492 18.32 9.60492 19.08 9.60492 19.72V26.5C9.60492 27.38 9.60492 28.1 9.60492 28.66C9.60492 29.22 9.60492 29.7 9.60492 30.1C9.64492 30.5 9.68492 30.88 9.72492 31.24C9.76492 31.56 9.80492 31.92 9.84492 32.32C9.92492 33.16 10.0049 33.8 10.0849 34.24C10.2049 34.64 10.4249 34.98 10.7449 35.26C11.0649 35.54 11.5049 35.72 12.0649 35.8C12.6649 35.88 13.2649 35.92 13.8649 35.92L14.1649 36.22L14.2849 37L14.1649 37.24C13.8849 37.24 13.4649 37.22 12.9049 37.18C12.3449 37.14 11.7449 37.1 11.1049 37.06C10.4649 37.06 9.86492 37.04 9.30492 37C8.74492 37 8.32492 37 8.04492 37H7.20492C6.92492 37 6.48492 37 5.88492 37C5.32492 37.04 4.72492 37.06 4.08492 37.06C3.48492 37.1 2.88492 37.14 2.28492 37.18C1.72492 37.22 1.30492 37.24 1.02492 37.24L0.964922 37L1.02492 36.16L1.26492 35.92C1.90492 35.92 2.52492 35.9 3.12492 35.86C3.76492 35.78 4.24492 35.58 4.56492 35.26C4.88492 34.98 5.08492 34.62 5.16492 34.18C5.28492 33.74 5.38492 33.12 5.46492 32.32C5.50492 31.68 5.54492 31.04 5.58492 30.4C5.62492 29.72 5.64492 28.66 5.64492 27.22V19.84C5.64492 19 5.64492 18.3 5.64492 17.74C5.64492 17.14 5.62492 16.62 5.58492 16.18C5.58492 15.74 5.56492 15.34 5.52492 14.98C5.52492 14.62 5.50492 14.24 5.46492 13.84C5.38492 13.4 5.26492 13.02 5.10492 12.7C4.94492 12.34 4.80492 12.1 4.68492 11.98C4.28492 11.5 3.78492 11.22 3.18492 11.14C2.58492 11.02 1.96492 10.96 1.32492 10.96L1.08492 10.72V9.88L1.32492 9.7H2.40492C3.08492 9.7 3.94492 9.7 4.98492 9.7C6.02492 9.66 6.92492 9.58 7.68492 9.46L9.78492 9.16L10.1449 9.7C9.94492 10.22 9.80492 10.94 9.72492 11.86C9.64492 12.74 9.58492 13.6 9.54492 14.44L9.72492 14.56ZM61.3474 31.84C60.3074 33.52 58.9674 34.92 57.3274 36.04C55.7274 37.12 53.7474 37.66 51.3874 37.66C50.2274 37.66 49.1074 37.52 48.0274 37.24C46.9874 37 46.0074 36.58 45.0874 35.98C44.2074 35.38 43.4474 34.58 42.8074 33.58C42.1674 32.58 41.7074 31.32 41.4274 29.8C41.2274 28.76 41.1274 27.68 41.1274 26.56C41.1674 25.4 41.1674 24.24 41.1274 23.08C41.1274 22.56 41.1074 21.86 41.0674 20.98C41.0674 20.06 41.0674 19.14 41.0674 18.22C41.0674 17.26 41.0674 16.38 41.0674 15.58C41.0674 14.78 41.0674 14.2 41.0674 13.84C41.0674 13.4 40.9674 13.02 40.7674 12.7C40.5674 12.34 40.4074 12.08 40.2874 11.92C39.8874 11.48 39.3874 11.22 38.7874 11.14C38.1874 11.02 37.5674 10.96 36.9274 10.96L36.7474 10.72V9.88L36.9274 9.7H38.0074C38.6874 9.7 39.5474 9.7 40.5874 9.7C41.6274 9.66 42.5274 9.58 43.2874 9.46L45.3874 9.16L45.7474 9.7C45.6674 9.86 45.6074 10.16 45.5674 10.6C45.5274 11 45.4874 11.44 45.4474 11.92C45.4074 12.4 45.3874 12.86 45.3874 13.3C45.3874 13.74 45.3874 14.08 45.3874 14.32C45.3874 15 45.3674 15.76 45.3274 16.6C45.3274 17.4 45.3074 18.22 45.2674 19.06C45.2674 19.9 45.2474 20.7 45.2074 21.46C45.2074 22.22 45.2074 22.86 45.2074 23.38C45.2074 24.26 45.2274 25.26 45.2674 26.38C45.3474 27.46 45.4874 28.4 45.6874 29.2C46.0874 31.08 46.9074 32.48 48.1474 33.4C49.3874 34.32 50.8274 34.78 52.4674 34.78C53.7074 34.78 54.8474 34.54 55.8874 34.06C56.9274 33.54 57.8274 32.92 58.5874 32.2C59.3874 31.48 60.0274 30.72 60.5074 29.92C61.0274 29.08 61.3674 28.32 61.5274 27.64V19.84C61.5274 19 61.5074 18.3 61.4674 17.74C61.4674 17.14 61.4474 16.62 61.4074 16.18C61.4074 15.74 61.3874 15.34 61.3474 14.98C61.3474 14.62 61.3274 14.24 61.2874 13.84C61.2074 13.4 61.0874 13.02 60.9274 12.7C60.8074 12.34 60.6874 12.1 60.5674 11.98C60.1674 11.5 59.6674 11.22 59.0674 11.14C58.4674 11.02 57.8474 10.96 57.2074 10.96L56.9674 10.72V9.88L57.2074 9.7H58.2874C58.9674 9.7 59.8274 9.7 60.8674 9.7C61.9074 9.66 62.7874 9.58 63.5074 9.46L65.6074 9.16L65.9674 9.7C65.8874 9.86 65.8274 10.16 65.7874 10.6C65.7474 11 65.7074 11.44 65.6674 11.92C65.6274 12.4 65.6074 12.86 65.6074 13.3C65.6074 13.74 65.6074 14.08 65.6074 14.32C65.6074 14.64 65.5874 14.94 65.5474 15.22C65.5474 15.5 65.5474 15.84 65.5474 16.24C65.5474 16.64 65.5274 17.12 65.4874 17.68C65.4874 18.2 65.4874 18.9 65.4874 19.78V26.5C65.4874 27.38 65.4874 28.1 65.4874 28.66C65.5274 29.22 65.5474 29.7 65.5474 30.1C65.5874 30.5 65.6074 30.88 65.6074 31.24C65.6474 31.56 65.6674 31.92 65.6674 32.32C65.7474 33.24 65.8474 33.92 65.9674 34.36C66.0874 34.76 66.2874 35.06 66.5674 35.26C66.8874 35.58 67.3474 35.78 67.9474 35.86C68.5874 35.9 69.2274 35.92 69.8674 35.92L70.1074 36.16L70.2274 37L70.1074 37.24C69.3874 37.16 68.6074 37.1 67.7674 37.06C66.9274 37.02 66.1074 37 65.3074 37C63.7874 37 62.4074 37.06 61.1674 37.18L60.8074 36.58C60.9274 36.06 61.0474 35.38 61.1674 34.54C61.3274 33.7 61.4474 32.84 61.5274 31.96L61.3474 31.84ZM100.325 20.86L99.3654 21.28C97.2054 21.28 94.9854 21.3 92.7054 21.34C90.4254 21.38 88.1854 21.4 85.9854 21.4H78.9054C78.8654 21.68 78.8454 21.96 78.8454 22.24C78.8454 22.48 78.8454 22.72 78.8454 22.96C78.8454 24.48 79.0654 25.94 79.5054 27.34C79.9454 28.7 80.6254 29.9 81.5454 30.94C82.5054 31.98 83.7254 32.82 85.2054 33.46C86.6854 34.06 88.4854 34.36 90.6054 34.36C91.8454 34.36 93.1654 34.24 94.5654 34C96.0054 33.72 97.3254 33.24 98.5254 32.56L99.1254 32.92V34L98.5254 34.66C97.5654 35.42 96.2054 36.12 94.4454 36.76C92.6854 37.36 90.7254 37.66 88.5654 37.66C86.4454 37.66 84.5054 37.32 82.7454 36.64C81.0254 35.92 79.5254 34.92 78.2454 33.64C77.0054 32.36 76.0254 30.84 75.3054 29.08C74.6254 27.32 74.2854 25.36 74.2854 23.2C74.2854 21 74.6454 19 75.3654 17.2C76.0854 15.4 77.0654 13.86 78.3054 12.58C79.5854 11.3 81.0654 10.3 82.7454 9.58C84.4654 8.86 86.3054 8.5 88.2654 8.5C89.3054 8.5 90.4654 8.64 91.7454 8.92C93.0654 9.2 94.3254 9.74 95.5254 10.54C96.7254 11.3 97.8054 12.4 98.7654 13.84C99.7254 15.24 100.385 17.1 100.745 19.42L100.325 20.86ZM88.3254 11.2C87.0454 11.2 85.8854 11.42 84.8454 11.86C83.8454 12.26 82.9454 12.82 82.1454 13.54C81.3854 14.22 80.7454 15.04 80.2254 16C79.7454 16.92 79.4054 17.9 79.2054 18.94H81.5454C83.7054 18.94 85.8054 18.92 87.8454 18.88C89.8854 18.8 92.0254 18.7 94.2654 18.58C94.7854 18.54 95.1254 18.4 95.2854 18.16C95.4854 17.92 95.5854 17.64 95.5854 17.32C95.5854 17.08 95.5654 16.86 95.5254 16.66C95.4854 16.46 95.4254 16.26 95.3454 16.06C94.9054 14.54 94.0854 13.36 92.8854 12.52C91.6854 11.64 90.1654 11.2 88.3254 11.2ZM119.249 21.1C120.929 21.46 122.269 21.96 123.269 22.6C124.309 23.2 125.109 23.86 125.669 24.58C126.229 25.3 126.589 26.04 126.749 26.8C126.949 27.52 127.049 28.2 127.049 28.84C127.049 30.12 126.789 31.3 126.269 32.38C125.749 33.46 124.989 34.4 123.989 35.2C123.029 35.96 121.849 36.56 120.449 37C119.049 37.44 117.469 37.66 115.709 37.66C113.749 37.66 111.909 37.44 110.189 37C108.509 36.52 107.169 36.02 106.169 35.5L106.049 34.96L106.949 28.78H108.329L108.509 29.02C108.509 30.94 109.109 32.46 110.309 33.58C111.509 34.66 113.249 35.2 115.529 35.2C116.889 35.2 118.029 35.04 118.949 34.72C119.869 34.4 120.589 33.98 121.109 33.46C121.669 32.94 122.069 32.38 122.309 31.78C122.549 31.18 122.669 30.6 122.669 30.04C122.669 29.68 122.649 29.28 122.609 28.84C122.569 28.36 122.409 27.9 122.129 27.46C121.849 26.98 121.429 26.54 120.869 26.14C120.309 25.7 119.509 25.34 118.469 25.06L112.709 23.62C111.389 23.3 110.309 22.88 109.469 22.36C108.629 21.84 107.969 21.28 107.489 20.68C107.009 20.04 106.669 19.38 106.469 18.7C106.269 17.98 106.169 17.26 106.169 16.54C106.169 15.22 106.429 14.06 106.949 13.06C107.469 12.02 108.169 11.18 109.049 10.54C109.969 9.86 111.029 9.36 112.229 9.04C113.429 8.68 114.729 8.5 116.129 8.5C118.009 8.5 119.729 8.74 121.289 9.22C122.889 9.7 124.129 10.18 125.009 10.66L125.189 11.2L124.529 15.82H123.269L123.029 15.64C123.029 14.72 122.769 13.96 122.249 13.36C121.769 12.72 121.169 12.22 120.449 11.86C119.729 11.46 118.969 11.18 118.169 11.02C117.369 10.86 116.669 10.78 116.069 10.78C114.069 10.78 112.629 11.28 111.749 12.28C110.869 13.28 110.429 14.4 110.429 15.64C110.429 16.56 110.729 17.44 111.329 18.28C111.969 19.08 113.189 19.7 114.989 20.14L119.249 21.1ZM147.176 12.22H139.376C139.376 14.82 139.356 17.22 139.316 19.42C139.316 21.62 139.316 23.56 139.316 25.24C139.316 26.88 139.296 28.2 139.256 29.2C139.256 30.2 139.256 30.82 139.256 31.06C139.256 32.62 139.556 33.66 140.156 34.18C140.756 34.7 141.456 34.96 142.256 34.96C142.936 34.96 143.716 34.84 144.596 34.6C145.516 34.32 146.256 34.02 146.816 33.7L147.356 34.12L146.816 35.8C145.896 36.44 144.856 36.9 143.696 37.18C142.576 37.5 141.576 37.66 140.696 37.66C138.656 37.66 137.216 37.1 136.376 35.98C135.536 34.86 135.116 33.42 135.116 31.66C135.116 31.3 135.136 30.56 135.176 29.44C135.216 28.32 135.256 26.92 135.296 25.24C135.336 23.56 135.376 21.62 135.416 19.42C135.456 17.22 135.476 14.82 135.476 12.22H131.156L130.916 11.92V10.78L131.156 10.54L135.476 9.7C135.476 8.3 135.436 6.88 135.356 5.44C135.316 3.96 135.256 2.52 135.176 1.12L135.596 0.759998L136.436 0.699999C136.756 0.659999 137.276 0.579999 137.996 0.459998C138.716 0.339998 139.216 0.199997 139.496 0.0399966L140.036 0.279997C139.916 0.839997 139.816 1.5 139.736 2.26C139.656 2.98 139.576 3.76 139.496 4.6C139.456 5.44 139.416 6.3 139.376 7.18C139.376 8.06 139.376 8.9 139.376 9.7L147.176 9.34L147.476 9.58V11.92L147.176 12.22ZM159.606 15.76C160.006 15 160.446 14.2 160.926 13.36C161.446 12.52 162.026 11.74 162.666 11.02C163.306 10.3 164.026 9.7 164.826 9.22C165.666 8.74 166.606 8.5 167.646 8.5C168.366 8.5 169.166 8.62 170.046 8.86C170.966 9.06 171.586 9.34 171.906 9.7L172.386 10.24L171.666 14.86H169.686C169.566 14.3 169.246 13.8 168.726 13.36C168.246 12.88 167.486 12.64 166.446 12.64C165.446 12.64 164.526 12.94 163.686 13.54C162.846 14.1 162.106 14.82 161.466 15.7C160.866 16.58 160.386 17.52 160.026 18.52C159.706 19.48 159.546 20.36 159.546 21.16V26.5C159.546 27.38 159.546 28.1 159.546 28.66C159.586 29.18 159.606 29.64 159.606 30.04C159.646 30.4 159.666 30.72 159.666 31C159.706 31.24 159.726 31.5 159.726 31.78L159.786 32.32C159.866 32.92 159.946 33.5 160.026 34.06C160.146 34.58 160.366 34.98 160.686 35.26C160.886 35.42 161.166 35.54 161.526 35.62C161.926 35.7 162.326 35.76 162.726 35.8C163.166 35.84 163.586 35.88 163.986 35.92C164.386 35.92 164.706 35.92 164.946 35.92L165.246 36.22L165.366 37L165.246 37.24C164.966 37.24 164.506 37.22 163.866 37.18C163.266 37.14 162.626 37.1 161.946 37.06C161.266 37.06 160.606 37.04 159.966 37C159.366 37 158.926 37 158.646 37H157.206C156.926 37 156.486 37 155.886 37C155.326 37.04 154.726 37.06 154.086 37.06C153.446 37.1 152.826 37.14 152.226 37.18C151.666 37.22 151.246 37.24 150.966 37.24L150.906 37L150.966 36.16L151.206 35.92C151.846 35.92 152.466 35.9 153.066 35.86C153.706 35.78 154.186 35.58 154.506 35.26C154.826 34.98 155.026 34.62 155.106 34.18C155.226 33.74 155.326 33.12 155.406 32.32L155.466 31.78C155.506 31.38 155.526 30.88 155.526 30.28C155.566 29.68 155.586 28.66 155.586 27.22V19.84C155.586 19 155.586 18.3 155.586 17.74C155.586 17.14 155.566 16.62 155.526 16.18C155.526 15.74 155.506 15.34 155.466 14.98C155.466 14.62 155.446 14.24 155.406 13.84C155.326 13.4 155.206 13.02 155.046 12.7C154.886 12.34 154.746 12.1 154.626 11.98C154.226 11.5 153.726 11.22 153.126 11.14C152.526 11.02 151.906 10.96 151.266 10.96L151.026 10.72V9.88L151.266 9.7H152.346C153.026 9.7 153.886 9.7 154.926 9.7C155.966 9.66 156.866 9.58 157.626 9.46L159.726 9.16L160.086 9.7C159.846 10.54 159.666 11.5 159.546 12.58C159.466 13.66 159.426 14.7 159.426 15.7L159.606 15.76ZM190.587 8.5C192.947 8.5 195.047 8.92 196.887 9.76C198.727 10.56 200.267 11.66 201.507 13.06C202.787 14.42 203.747 16 204.387 17.8C205.067 19.6 205.407 21.46 205.407 23.38C205.407 25.22 205.107 27 204.507 28.72C203.907 30.44 202.987 31.96 201.747 33.28C200.507 34.6 198.967 35.66 197.127 36.46C195.287 37.26 193.147 37.66 190.707 37.66C188.187 37.66 185.987 37.24 184.107 36.4C182.227 35.56 180.667 34.46 179.427 33.1C178.227 31.74 177.327 30.2 176.727 28.48C176.127 26.72 175.827 24.92 175.827 23.08C175.827 21.12 176.167 19.26 176.847 17.5C177.527 15.74 178.487 14.2 179.727 12.88C181.007 11.52 182.547 10.46 184.347 9.7C186.187 8.9 188.267 8.5 190.587 8.5ZM190.647 35.32C192.327 35.32 193.807 34.98 195.087 34.3C196.367 33.62 197.427 32.72 198.267 31.6C199.107 30.48 199.727 29.22 200.127 27.82C200.567 26.38 200.787 24.9 200.787 23.38C200.787 21.94 200.547 20.48 200.067 19C199.627 17.52 198.967 16.2 198.087 15.04C197.207 13.84 196.127 12.88 194.847 12.16C193.567 11.4 192.087 11.02 190.407 11.02C188.647 11.02 187.127 11.38 185.847 12.1C184.607 12.78 183.567 13.68 182.727 14.8C181.927 15.92 181.327 17.2 180.927 18.64C180.527 20.08 180.327 21.52 180.327 22.96C180.327 24.44 180.547 25.92 180.987 27.4C181.467 28.84 182.147 30.16 183.027 31.36C183.907 32.52 184.987 33.48 186.267 34.24C187.547 34.96 189.007 35.32 190.647 35.32ZM224.561 9.88L224.801 9.7H225.881C226.561 9.7 227.421 9.7 228.461 9.7C229.501 9.66 230.401 9.58 231.161 9.46L233.261 9.16L233.621 9.7C233.541 9.94 233.461 10.26 233.381 10.66C233.341 11.02 233.281 11.44 233.201 11.92C233.161 12.36 233.121 12.8 233.081 13.24C233.041 13.68 233.021 14.06 233.021 14.38L233.201 14.5C233.641 13.7 234.141 12.94 234.701 12.22C235.301 11.46 235.981 10.82 236.741 10.3C237.501 9.74 238.361 9.3 239.321 8.98C240.281 8.66 241.381 8.5 242.621 8.5C243.661 8.5 244.681 8.64 245.681 8.92C246.681 9.16 247.601 9.56 248.441 10.12C249.321 10.64 250.081 11.34 250.721 12.22C251.401 13.06 251.921 14.08 252.281 15.28C252.761 14.4 253.281 13.56 253.841 12.76C254.441 11.92 255.121 11.2 255.881 10.6C256.681 9.96 257.581 9.46 258.581 9.1C259.621 8.7 260.801 8.5 262.121 8.5C263.281 8.5 264.401 8.66 265.481 8.98C266.601 9.3 267.601 9.8 268.481 10.48C269.401 11.16 270.181 12.02 270.821 13.06C271.501 14.1 271.961 15.36 272.201 16.84C272.401 17.88 272.501 18.98 272.501 20.14C272.541 21.3 272.561 22.46 272.561 23.62V32.32C272.561 33.24 272.641 33.92 272.801 34.36C272.961 34.76 273.181 35.06 273.461 35.26C273.781 35.58 274.241 35.78 274.841 35.86C275.481 35.9 276.121 35.92 276.761 35.92L277.001 36.16L277.121 37L277.001 37.24C276.281 37.16 275.501 37.1 274.661 37.06C273.861 37.02 273.041 37 272.201 37C270.721 37 269.361 37.06 268.121 37.18L267.701 36.58C267.861 36.06 267.981 35.38 268.061 34.54C268.141 33.7 268.201 32.96 268.241 32.32C268.281 31.72 268.301 30.98 268.301 30.1C268.341 29.22 268.361 28.34 268.361 27.46C268.401 26.54 268.421 25.68 268.421 24.88C268.421 24.08 268.421 23.46 268.421 23.02C268.421 22.22 268.381 21.22 268.301 20.02C268.261 18.78 268.141 17.74 267.941 16.9C267.541 15.26 266.721 14.02 265.481 13.18C264.281 12.34 262.921 11.92 261.401 11.92C260.281 11.92 259.241 12.14 258.281 12.58C257.361 12.98 256.541 13.5 255.821 14.14C255.101 14.74 254.481 15.42 253.961 16.18C253.481 16.94 253.121 17.66 252.881 18.34C252.961 19.22 253.001 20.1 253.001 20.98C253.041 21.86 253.061 22.74 253.061 23.62V32.32C253.061 33.16 253.141 33.8 253.301 34.24C253.461 34.64 253.701 34.98 254.021 35.26C254.341 35.54 254.781 35.72 255.341 35.8C255.941 35.88 256.541 35.92 257.141 35.92L257.441 36.22L257.561 37L257.441 37.24C257.161 37.24 256.741 37.22 256.181 37.18C255.621 37.14 255.021 37.1 254.381 37.06C253.741 37.06 253.141 37.04 252.581 37C252.021 37 251.601 37 251.321 37H250.481C250.201 37 249.761 37 249.161 37C248.601 37.04 248.001 37.06 247.361 37.06C246.761 37.1 246.161 37.14 245.561 37.18C245.001 37.22 244.581 37.24 244.301 37.24L244.181 37L244.301 36.16L244.541 35.92C245.181 35.92 245.801 35.9 246.401 35.86C247.041 35.78 247.521 35.58 247.841 35.26C248.161 34.98 248.361 34.62 248.441 34.18C248.521 33.74 248.601 33.12 248.681 32.32C248.721 31.72 248.741 30.98 248.741 30.1C248.781 29.22 248.801 28.34 248.801 27.46C248.841 26.54 248.861 25.68 248.861 24.88C248.901 24.08 248.921 23.46 248.921 23.02C248.921 22.62 248.921 22.16 248.921 21.64C248.921 21.08 248.901 20.52 248.861 19.96C248.821 19.4 248.761 18.86 248.681 18.34C248.641 17.82 248.561 17.34 248.441 16.9C248.001 15.26 247.181 14.02 245.981 13.18C244.781 12.34 243.421 11.92 241.901 11.92C240.581 11.92 239.381 12.22 238.301 12.82C237.221 13.38 236.281 14.08 235.481 14.92C234.721 15.72 234.121 16.58 233.681 17.5C233.281 18.38 233.081 19.14 233.081 19.78V26.5C233.081 27.38 233.081 28.1 233.081 28.66C233.121 29.22 233.141 29.7 233.141 30.1C233.181 30.5 233.201 30.88 233.201 31.24C233.241 31.56 233.281 31.92 233.321 32.32C233.401 33.16 233.481 33.8 233.561 34.24C233.681 34.64 233.901 34.98 234.221 35.26C234.541 35.54 234.981 35.72 235.541 35.8C236.141 35.88 236.741 35.92 237.341 35.92L237.641 36.22L237.761 37L237.641 37.24C237.361 37.24 236.941 37.22 236.381 37.18C235.821 37.14 235.221 37.1 234.581 37.06C233.941 37.06 233.341 37.04 232.781 37C232.221 37 231.801 37 231.521 37H230.681C230.401 37 229.961 37 229.361 37C228.801 37.04 228.201 37.06 227.561 37.06C226.961 37.1 226.361 37.14 225.761 37.18C225.201 37.22 224.781 37.24 224.501 37.24L224.441 37L224.501 36.16L224.741 35.92C225.381 35.92 226.001 35.9 226.601 35.86C227.241 35.78 227.721 35.58 228.041 35.26C228.361 34.98 228.561 34.62 228.641 34.18C228.761 33.74 228.861 33.12 228.941 32.32C228.981 31.68 229.021 31.04 229.061 30.4C229.101 29.72 229.121 28.66 229.121 27.22V19.84C229.121 19 229.121 18.3 229.121 17.74C229.121 17.14 229.101 16.62 229.061 16.18C229.061 15.74 229.041 15.34 229.001 14.98C229.001 14.62 228.981 14.24 228.941 13.84C228.861 13.4 228.741 13.02 228.581 12.7C228.421 12.34 228.281 12.1 228.161 11.98C227.761 11.5 227.261 11.22 226.661 11.14C226.061 11.02 225.441 10.96 224.801 10.96L224.561 10.72V9.88ZM306.751 20.86L305.791 21.28C303.631 21.28 301.411 21.3 299.131 21.34C296.851 21.38 294.611 21.4 292.411 21.4H285.331C285.291 21.68 285.271 21.96 285.271 22.24C285.271 22.48 285.271 22.72 285.271 22.96C285.271 24.48 285.491 25.94 285.931 27.34C286.371 28.7 287.051 29.9 287.971 30.94C288.931 31.98 290.151 32.82 291.631 33.46C293.111 34.06 294.911 34.36 297.031 34.36C298.271 34.36 299.591 34.24 300.991 34C302.431 33.72 303.751 33.24 304.951 32.56L305.551 32.92V34L304.951 34.66C303.991 35.42 302.631 36.12 300.871 36.76C299.111 37.36 297.151 37.66 294.991 37.66C292.871 37.66 290.931 37.32 289.171 36.64C287.451 35.92 285.951 34.92 284.671 33.64C283.431 32.36 282.451 30.84 281.731 29.08C281.051 27.32 280.711 25.36 280.711 23.2C280.711 21 281.071 19 281.791 17.2C282.511 15.4 283.491 13.86 284.731 12.58C286.011 11.3 287.491 10.3 289.171 9.58C290.891 8.86 292.731 8.5 294.691 8.5C295.731 8.5 296.891 8.64 298.171 8.92C299.491 9.2 300.751 9.74 301.951 10.54C303.151 11.3 304.231 12.4 305.191 13.84C306.151 15.24 306.811 17.1 307.171 19.42L306.751 20.86ZM294.751 11.2C293.471 11.2 292.311 11.42 291.271 11.86C290.271 12.26 289.371 12.82 288.571 13.54C287.811 14.22 287.171 15.04 286.651 16C286.171 16.92 285.831 17.9 285.631 18.94H287.971C290.131 18.94 292.231 18.92 294.271 18.88C296.311 18.8 298.451 18.7 300.691 18.58C301.211 18.54 301.551 18.4 301.711 18.16C301.911 17.92 302.011 17.64 302.011 17.32C302.011 17.08 301.991 16.86 301.951 16.66C301.911 16.46 301.851 16.26 301.771 16.06C301.331 14.54 300.511 13.36 299.311 12.52C298.111 11.64 296.591 11.2 294.751 11.2ZM320.155 14.56C321.195 12.84 322.535 11.4 324.175 10.24C325.815 9.08 327.855 8.5 330.295 8.5C331.415 8.5 332.535 8.66 333.655 8.98C334.775 9.3 335.795 9.8 336.715 10.48C337.675 11.16 338.455 12.04 339.055 13.12C339.695 14.16 340.115 15.4 340.315 16.84C340.435 17.88 340.495 18.98 340.495 20.14C340.535 21.3 340.555 22.46 340.555 23.62C340.555 25.06 340.555 26.52 340.555 28C340.595 29.44 340.615 30.88 340.615 32.32C340.695 33.24 340.795 33.92 340.915 34.36C341.035 34.76 341.215 35.06 341.455 35.26C341.815 35.58 342.295 35.78 342.895 35.86C343.535 35.9 344.175 35.92 344.815 35.92L344.995 36.16L345.115 37L344.995 37.24C344.315 37.16 343.555 37.1 342.715 37.06C341.875 37.02 341.055 37 340.255 37C338.735 37 337.355 37.06 336.115 37.18L335.695 36.58C335.855 36.06 335.975 35.38 336.055 34.54C336.135 33.7 336.195 32.96 336.235 32.32C336.315 30.64 336.375 29 336.415 27.4C336.455 25.76 336.475 24.4 336.475 23.32C336.475 22.4 336.435 21.4 336.355 20.32C336.315 19.24 336.195 18.3 335.995 17.5C335.595 15.62 334.775 14.22 333.535 13.3C332.295 12.38 330.855 11.92 329.215 11.92C327.895 11.92 326.655 12.2 325.495 12.76C324.375 13.32 323.415 14.02 322.615 14.86C321.815 15.66 321.175 16.52 320.695 17.44C320.255 18.32 320.035 19.08 320.035 19.72V26.5C320.035 27.38 320.035 28.1 320.035 28.66C320.035 29.22 320.035 29.7 320.035 30.1C320.075 30.5 320.115 30.88 320.155 31.24C320.195 31.56 320.235 31.92 320.275 32.32C320.355 33.16 320.435 33.8 320.515 34.24C320.635 34.64 320.855 34.98 321.175 35.26C321.495 35.54 321.935 35.72 322.495 35.8C323.095 35.88 323.695 35.92 324.295 35.92L324.595 36.22L324.715 37L324.595 37.24C324.315 37.24 323.895 37.22 323.335 37.18C322.775 37.14 322.175 37.1 321.535 37.06C320.895 37.06 320.295 37.04 319.735 37C319.175 37 318.755 37 318.475 37H317.635C317.355 37 316.915 37 316.315 37C315.755 37.04 315.155 37.06 314.515 37.06C313.915 37.1 313.315 37.14 312.715 37.18C312.155 37.22 311.735 37.24 311.455 37.24L311.395 37L311.455 36.16L311.695 35.92C312.335 35.92 312.955 35.9 313.555 35.86C314.195 35.78 314.675 35.58 314.995 35.26C315.315 34.98 315.515 34.62 315.595 34.18C315.715 33.74 315.815 33.12 315.895 32.32C315.935 31.68 315.975 31.04 316.015 30.4C316.055 29.72 316.075 28.66 316.075 27.22V19.84C316.075 19 316.075 18.3 316.075 17.74C316.075 17.14 316.055 16.62 316.015 16.18C316.015 15.74 315.995 15.34 315.955 14.98C315.955 14.62 315.935 14.24 315.895 13.84C315.815 13.4 315.695 13.02 315.535 12.7C315.375 12.34 315.235 12.1 315.115 11.98C314.715 11.5 314.215 11.22 313.615 11.14C313.015 11.02 312.395 10.96 311.755 10.96L311.515 10.72V9.88L311.755 9.7H312.835C313.515 9.7 314.375 9.7 315.415 9.7C316.455 9.66 317.355 9.58 318.115 9.46L320.215 9.16L320.575 9.7C320.375 10.22 320.235 10.94 320.155 11.86C320.075 12.74 320.015 13.6 319.975 14.44L320.155 14.56ZM371.777 31.84C370.737 33.52 369.397 34.92 367.757 36.04C366.157 37.12 364.177 37.66 361.817 37.66C360.657 37.66 359.537 37.52 358.457 37.24C357.417 37 356.437 36.58 355.517 35.98C354.637 35.38 353.877 34.58 353.237 33.58C352.597 32.58 352.137 31.32 351.857 29.8C351.657 28.76 351.557 27.68 351.557 26.56C351.597 25.4 351.597 24.24 351.557 23.08C351.557 22.56 351.537 21.86 351.497 20.98C351.497 20.06 351.497 19.14 351.497 18.22C351.497 17.26 351.497 16.38 351.497 15.58C351.497 14.78 351.497 14.2 351.497 13.84C351.497 13.4 351.397 13.02 351.197 12.7C350.997 12.34 350.837 12.08 350.717 11.92C350.317 11.48 349.817 11.22 349.217 11.14C348.617 11.02 347.997 10.96 347.357 10.96L347.177 10.72V9.88L347.357 9.7H348.437C349.117 9.7 349.977 9.7 351.017 9.7C352.057 9.66 352.957 9.58 353.717 9.46L355.817 9.16L356.177 9.7C356.097 9.86 356.037 10.16 355.997 10.6C355.957 11 355.917 11.44 355.877 11.92C355.837 12.4 355.817 12.86 355.817 13.3C355.817 13.74 355.817 14.08 355.817 14.32C355.817 15 355.797 15.76 355.757 16.6C355.757 17.4 355.737 18.22 355.697 19.06C355.697 19.9 355.677 20.7 355.637 21.46C355.637 22.22 355.637 22.86 355.637 23.38C355.637 24.26 355.657 25.26 355.697 26.38C355.777 27.46 355.917 28.4 356.117 29.2C356.517 31.08 357.337 32.48 358.577 33.4C359.817 34.32 361.257 34.78 362.897 34.78C364.137 34.78 365.277 34.54 366.317 34.06C367.357 33.54 368.257 32.92 369.017 32.2C369.817 31.48 370.457 30.72 370.937 29.92C371.457 29.08 371.797 28.32 371.957 27.64V19.84C371.957 19 371.937 18.3 371.897 17.74C371.897 17.14 371.877 16.62 371.837 16.18C371.837 15.74 371.817 15.34 371.777 14.98C371.777 14.62 371.757 14.24 371.717 13.84C371.637 13.4 371.517 13.02 371.357 12.7C371.237 12.34 371.117 12.1 370.997 11.98C370.597 11.5 370.097 11.22 369.497 11.14C368.897 11.02 368.277 10.96 367.637 10.96L367.397 10.72V9.88L367.637 9.7H368.717C369.397 9.7 370.257 9.7 371.297 9.7C372.337 9.66 373.217 9.58 373.937 9.46L376.037 9.16L376.397 9.7C376.317 9.86 376.257 10.16 376.217 10.6C376.177 11 376.137 11.44 376.097 11.92C376.057 12.4 376.037 12.86 376.037 13.3C376.037 13.74 376.037 14.08 376.037 14.32C376.037 14.64 376.017 14.94 375.977 15.22C375.977 15.5 375.977 15.84 375.977 16.24C375.977 16.64 375.957 17.12 375.917 17.68C375.917 18.2 375.917 18.9 375.917 19.78V26.5C375.917 27.38 375.917 28.1 375.917 28.66C375.957 29.22 375.977 29.7 375.977 30.1C376.017 30.5 376.037 30.88 376.037 31.24C376.077 31.56 376.097 31.92 376.097 32.32C376.177 33.24 376.277 33.92 376.397 34.36C376.517 34.76 376.717 35.06 376.997 35.26C377.317 35.58 377.777 35.78 378.377 35.86C379.017 35.9 379.657 35.92 380.297 35.92L380.537 36.16L380.657 37L380.537 37.24C379.817 37.16 379.037 37.1 378.197 37.06C377.357 37.02 376.537 37 375.737 37C374.217 37 372.837 37.06 371.597 37.18L371.237 36.58C371.357 36.06 371.477 35.38 371.597 34.54C371.757 33.7 371.877 32.84 371.957 31.96L371.777 31.84Z" fill="white"/>
</svg>
