<svg width="387" height="41" viewBox="0 0 387 41" fill="none" xmlns="http://www.w3.org/2000/svg">
<path d="M39.9507 0.639999L39.8307 1.72L39.5307 1.96C38.8907 1.96 38.2707 2 37.6707 2.08C37.1107 2.12 36.6707 2.28 36.3507 2.56C36.0307 2.84 35.7307 3.2 35.4507 3.64C35.2107 4.08 35.0507 4.86 34.9707 5.98C34.9307 6.54 34.8907 7.06 34.8507 7.54C34.8507 8.02 34.8307 8.58 34.7907 9.22C34.7907 9.86 34.7907 10.64 34.7907 11.56C34.7907 12.48 34.7907 13.66 34.7907 15.1V25.66C34.7907 27.9 34.7907 29.74 34.7907 31.18C34.8307 32.62 34.8507 33.86 34.8507 34.9C34.8907 35.9 34.9307 36.8 34.9707 37.6C35.0507 38.4 35.1307 39.28 35.2107 40.24L34.7307 40.54L31.0107 40.3L30.4107 39.58L9.0507 7.6C9.0507 8 9.0307 8.4 8.9907 8.8C8.9907 9.2 8.9907 9.7 8.9907 10.3C8.9907 10.86 8.9907 11.52 8.9907 12.28C8.9907 13.04 8.9907 13.98 8.9907 15.1V26.14C8.9907 26.62 8.9907 27.26 8.9907 28.06C8.9907 28.82 8.9907 29.62 8.9907 30.46C9.0307 31.3 9.0507 32.12 9.0507 32.92C9.0907 33.68 9.1307 34.3 9.1707 34.78C9.2507 35.78 9.4107 36.54 9.6507 37.06C9.9307 37.54 10.2707 37.92 10.6707 38.2C10.9907 38.44 11.4107 38.6 11.9307 38.68C12.4507 38.76 13.1107 38.8 13.9107 38.8L14.2107 39.04L14.3907 40.12L14.2707 40.36C13.9907 40.36 13.5507 40.34 12.9507 40.3C12.3907 40.26 11.7907 40.22 11.1507 40.18C10.5107 40.14 9.8907 40.1 9.2907 40.06C8.7307 40.02 8.3107 40 8.0307 40H6.8907C6.6107 40 6.1507 40.02 5.5107 40.06C4.8707 40.1 4.2107 40.14 3.5307 40.18C2.8507 40.22 2.1907 40.26 1.5507 40.3C0.910703 40.34 0.450703 40.36 0.170703 40.36L0.0507032 40.12L0.230703 39.04L0.530703 38.8C1.2507 38.8 1.8507 38.78 2.3307 38.74C2.8507 38.66 3.3107 38.48 3.7107 38.2C3.9907 38 4.2707 37.68 4.5507 37.24C4.8707 36.76 5.0907 35.94 5.2107 34.78C5.2507 34.5 5.2707 34.18 5.2707 33.82C5.3107 33.42 5.3307 32.94 5.3307 32.38C5.3307 31.82 5.3307 31.14 5.3307 30.34C5.3307 29.54 5.3307 28.54 5.3307 27.34V15.16C5.3307 13.76 5.3307 12.58 5.3307 11.62C5.3307 10.66 5.3307 9.84 5.3307 9.16C5.3307 8.48 5.3107 7.9 5.2707 7.42C5.2707 6.94 5.2507 6.46 5.2107 5.98C5.1307 5.14 4.9507 4.44 4.6707 3.88C4.3907 3.28 4.0707 2.84 3.7107 2.56C3.3507 2.28 2.8907 2.12 2.3307 2.08C1.8107 2 1.2107 1.96 0.530703 1.96L0.230703 1.72L0.0507032 0.639999L0.170703 0.399998C0.450703 0.399998 0.850703 0.419998 1.3707 0.459998C1.9307 0.499997 2.4907 0.539998 3.0507 0.58C3.6107 0.619999 4.1507 0.659999 4.6707 0.699998C5.2307 0.739998 5.6507 0.759997 5.9307 0.759997H8.0307C8.3507 0.759997 8.7907 0.739998 9.3507 0.699998C9.9507 0.659999 10.4307 0.599998 10.7907 0.519997L11.0907 0.699998C11.2507 1.26 11.5707 2.04 12.0507 3.04C12.5707 4 13.1707 5.08 13.8507 6.28C14.5707 7.48 15.3307 8.76 16.1307 10.12C16.9707 11.48 17.8107 12.82 18.6507 14.14C21.6907 19.02 24.3307 23 26.5707 26.08C28.8507 29.16 30.3107 31.16 30.9507 32.08C30.9507 31.8 30.9507 31.54 30.9507 31.3C30.9907 31.06 31.0107 30.78 31.0107 30.46C31.0107 30.14 31.0107 29.74 31.0107 29.26C31.0107 28.78 31.0107 28.14 31.0107 27.34V15.16C31.0107 13.76 31.0107 12.58 31.0107 11.62C31.0107 10.66 30.9907 9.84 30.9507 9.16C30.9507 8.48 30.9307 7.9 30.8907 7.42C30.8907 6.94 30.8707 6.46 30.8307 5.98C30.7507 4.86 30.5707 4.08 30.2907 3.64C30.0107 3.2 29.7107 2.84 29.3907 2.56C29.0307 2.28 28.5507 2.12 27.9507 2.08C27.3907 2 26.7907 1.96 26.1507 1.96L25.9107 1.72L25.7307 0.639999L25.8507 0.399998C26.1307 0.399998 26.5307 0.419998 27.0507 0.459998C27.5707 0.499997 28.0907 0.539998 28.6107 0.58C29.1707 0.619999 29.7107 0.659999 30.2307 0.699998C30.7507 0.739998 31.1507 0.759997 31.4307 0.759997H34.2507C34.5307 0.759997 34.9307 0.759997 35.4507 0.759997C35.9707 0.719998 36.5107 0.679998 37.0707 0.639999C37.6307 0.599999 38.1707 0.559999 38.6907 0.519997C39.2107 0.479997 39.6107 0.439998 39.8907 0.399998L39.9507 0.639999ZM66.9216 34.84C65.8816 36.52 64.5416 37.92 62.9016 39.04C61.3016 40.12 59.3216 40.66 56.9616 40.66C55.8016 40.66 54.6816 40.52 53.6016 40.24C52.5616 40 51.5816 39.58 50.6616 38.98C49.7816 38.38 49.0216 37.58 48.3816 36.58C47.7416 35.58 47.2816 34.32 47.0016 32.8C46.8016 31.76 46.7016 30.68 46.7016 29.56C46.7416 28.4 46.7416 27.24 46.7016 26.08C46.7016 25.56 46.6816 24.86 46.6416 23.98C46.6416 23.06 46.6416 22.14 46.6416 21.22C46.6416 20.26 46.6416 19.38 46.6416 18.58C46.6416 17.78 46.6416 17.2 46.6416 16.84C46.6416 16.4 46.5416 16.02 46.3416 15.7C46.1416 15.34 45.9816 15.08 45.8616 14.92C45.4616 14.48 44.9616 14.22 44.3616 14.14C43.7616 14.02 43.1416 13.96 42.5016 13.96L42.3216 13.72V12.88L42.5016 12.7H43.5816C44.2616 12.7 45.1216 12.7 46.1616 12.7C47.2016 12.66 48.1016 12.58 48.8616 12.46L50.9616 12.16L51.3216 12.7C51.2416 12.86 51.1816 13.16 51.1416 13.6C51.1016 14 51.0616 14.44 51.0216 14.92C50.9816 15.4 50.9616 15.86 50.9616 16.3C50.9616 16.74 50.9616 17.08 50.9616 17.32C50.9616 18 50.9416 18.76 50.9016 19.6C50.9016 20.4 50.8816 21.22 50.8416 22.06C50.8416 22.9 50.8216 23.7 50.7816 24.46C50.7816 25.22 50.7816 25.86 50.7816 26.38C50.7816 27.26 50.8016 28.26 50.8416 29.38C50.9216 30.46 51.0616 31.4 51.2616 32.2C51.6616 34.08 52.4816 35.48 53.7216 36.4C54.9616 37.32 56.4016 37.78 58.0416 37.78C59.2816 37.78 60.4216 37.54 61.4616 37.06C62.5016 36.54 63.4016 35.92 64.1616 35.2C64.9616 34.48 65.6016 33.72 66.0816 32.92C66.6016 32.08 66.9416 31.32 67.1016 30.64V22.84C67.1016 22 67.0816 21.3 67.0416 20.74C67.0416 20.14 67.0216 19.62 66.9816 19.18C66.9816 18.74 66.9616 18.34 66.9216 17.98C66.9216 17.62 66.9016 17.24 66.8616 16.84C66.7816 16.4 66.6616 16.02 66.5016 15.7C66.3816 15.34 66.2616 15.1 66.1416 14.98C65.7416 14.5 65.2416 14.22 64.6416 14.14C64.0416 14.02 63.4216 13.96 62.7816 13.96L62.5416 13.72V12.88L62.7816 12.7H63.8616C64.5416 12.7 65.4016 12.7 66.4416 12.7C67.4816 12.66 68.3616 12.58 69.0816 12.46L71.1816 12.16L71.5416 12.7C71.4616 12.86 71.4016 13.16 71.3616 13.6C71.3216 14 71.2816 14.44 71.2416 14.92C71.2016 15.4 71.1816 15.86 71.1816 16.3C71.1816 16.74 71.1816 17.08 71.1816 17.32C71.1816 17.64 71.1616 17.94 71.1216 18.22C71.1216 18.5 71.1216 18.84 71.1216 19.24C71.1216 19.64 71.1016 20.12 71.0616 20.68C71.0616 21.2 71.0616 21.9 71.0616 22.78V29.5C71.0616 30.38 71.0616 31.1 71.0616 31.66C71.1016 32.22 71.1216 32.7 71.1216 33.1C71.1616 33.5 71.1816 33.88 71.1816 34.24C71.2216 34.56 71.2416 34.92 71.2416 35.32C71.3216 36.24 71.4216 36.92 71.5416 37.36C71.6616 37.76 71.8616 38.06 72.1416 38.26C72.4616 38.58 72.9216 38.78 73.5216 38.86C74.1616 38.9 74.8016 38.92 75.4416 38.92L75.6816 39.16L75.8016 40L75.6816 40.24C74.9616 40.16 74.1816 40.1 73.3416 40.06C72.5016 40.02 71.6816 40 70.8816 40C69.3616 40 67.9816 40.06 66.7416 40.18L66.3816 39.58C66.5016 39.06 66.6216 38.38 66.7416 37.54C66.9016 36.7 67.0216 35.84 67.1016 34.96L66.9216 34.84ZM105.9 23.86L104.94 24.28C102.78 24.28 100.56 24.3 98.2796 24.34C95.9996 24.38 93.7596 24.4 91.5596 24.4H84.4796C84.4396 24.68 84.4196 24.96 84.4196 25.24C84.4196 25.48 84.4196 25.72 84.4196 25.96C84.4196 27.48 84.6396 28.94 85.0796 30.34C85.5196 31.7 86.1996 32.9 87.1196 33.94C88.0796 34.98 89.2996 35.82 90.7796 36.46C92.2596 37.06 94.0596 37.36 96.1796 37.36C97.4196 37.36 98.7396 37.24 100.14 37C101.58 36.72 102.9 36.24 104.1 35.56L104.7 35.92V37L104.1 37.66C103.14 38.42 101.78 39.12 100.02 39.76C98.2596 40.36 96.2996 40.66 94.1396 40.66C92.0196 40.66 90.0796 40.32 88.3196 39.64C86.5996 38.92 85.0996 37.92 83.8196 36.64C82.5796 35.36 81.5996 33.84 80.8796 32.08C80.1996 30.32 79.8596 28.36 79.8596 26.2C79.8596 24 80.2196 22 80.9396 20.2C81.6596 18.4 82.6396 16.86 83.8796 15.58C85.1596 14.3 86.6396 13.3 88.3196 12.58C90.0396 11.86 91.8796 11.5 93.8396 11.5C94.8796 11.5 96.0396 11.64 97.3196 11.92C98.6396 12.2 99.8996 12.74 101.1 13.54C102.3 14.3 103.38 15.4 104.34 16.84C105.3 18.24 105.96 20.1 106.32 22.42L105.9 23.86ZM93.8996 14.2C92.6196 14.2 91.4596 14.42 90.4196 14.86C89.4196 15.26 88.5196 15.82 87.7196 16.54C86.9596 17.22 86.3196 18.04 85.7996 19C85.3196 19.92 84.9796 20.9 84.7796 21.94H87.1196C89.2796 21.94 91.3796 21.92 93.4196 21.88C95.4596 21.8 97.5996 21.7 99.8396 21.58C100.36 21.54 100.7 21.4 100.86 21.16C101.06 20.92 101.16 20.64 101.16 20.32C101.16 20.08 101.14 19.86 101.1 19.66C101.06 19.46 101 19.26 100.92 19.06C100.48 17.54 99.6596 16.36 98.4596 15.52C97.2596 14.64 95.7396 14.2 93.8996 14.2ZM124.823 24.1C126.503 24.46 127.843 24.96 128.843 25.6C129.883 26.2 130.683 26.86 131.243 27.58C131.803 28.3 132.163 29.04 132.323 29.8C132.523 30.52 132.623 31.2 132.623 31.84C132.623 33.12 132.363 34.3 131.843 35.38C131.323 36.46 130.563 37.4 129.563 38.2C128.603 38.96 127.423 39.56 126.023 40C124.623 40.44 123.043 40.66 121.283 40.66C119.323 40.66 117.483 40.44 115.763 40C114.083 39.52 112.743 39.02 111.743 38.5L111.623 37.96L112.523 31.78H113.903L114.083 32.02C114.083 33.94 114.683 35.46 115.883 36.58C117.083 37.66 118.823 38.2 121.103 38.2C122.463 38.2 123.603 38.04 124.523 37.72C125.443 37.4 126.163 36.98 126.683 36.46C127.243 35.94 127.643 35.38 127.883 34.78C128.123 34.18 128.243 33.6 128.243 33.04C128.243 32.68 128.223 32.28 128.183 31.84C128.143 31.36 127.983 30.9 127.703 30.46C127.423 29.98 127.003 29.54 126.443 29.14C125.883 28.7 125.083 28.34 124.043 28.06L118.283 26.62C116.963 26.3 115.883 25.88 115.043 25.36C114.203 24.84 113.543 24.28 113.063 23.68C112.583 23.04 112.243 22.38 112.043 21.7C111.843 20.98 111.743 20.26 111.743 19.54C111.743 18.22 112.003 17.06 112.523 16.06C113.043 15.02 113.743 14.18 114.623 13.54C115.543 12.86 116.603 12.36 117.803 12.04C119.003 11.68 120.303 11.5 121.703 11.5C123.583 11.5 125.303 11.74 126.863 12.22C128.463 12.7 129.703 13.18 130.583 13.66L130.763 14.2L130.103 18.82H128.843L128.603 18.64C128.603 17.72 128.343 16.96 127.823 16.36C127.343 15.72 126.743 15.22 126.023 14.86C125.303 14.46 124.543 14.18 123.743 14.02C122.943 13.86 122.243 13.78 121.643 13.78C119.643 13.78 118.203 14.28 117.323 15.28C116.443 16.28 116.003 17.4 116.003 18.64C116.003 19.56 116.303 20.44 116.903 21.28C117.543 22.08 118.763 22.7 120.563 23.14L124.823 24.1ZM152.75 15.22H144.95C144.95 17.82 144.93 20.22 144.89 22.42C144.89 24.62 144.89 26.56 144.89 28.24C144.89 29.88 144.87 31.2 144.83 32.2C144.83 33.2 144.83 33.82 144.83 34.06C144.83 35.62 145.13 36.66 145.73 37.18C146.33 37.7 147.03 37.96 147.83 37.96C148.51 37.96 149.29 37.84 150.17 37.6C151.09 37.32 151.83 37.02 152.39 36.7L152.93 37.12L152.39 38.8C151.47 39.44 150.43 39.9 149.27 40.18C148.15 40.5 147.15 40.66 146.27 40.66C144.23 40.66 142.79 40.1 141.95 38.98C141.11 37.86 140.69 36.42 140.69 34.66C140.69 34.3 140.71 33.56 140.75 32.44C140.79 31.32 140.83 29.92 140.87 28.24C140.91 26.56 140.95 24.62 140.99 22.42C141.03 20.22 141.05 17.82 141.05 15.22H136.73L136.49 14.92V13.78L136.73 13.54L141.05 12.7C141.05 11.3 141.01 9.88 140.93 8.44C140.89 6.96 140.83 5.52 140.75 4.12L141.17 3.76L142.01 3.7C142.33 3.66 142.85 3.58 143.57 3.46C144.29 3.34 144.79 3.2 145.07 3.04L145.61 3.28C145.49 3.84 145.39 4.5 145.31 5.26C145.23 5.98 145.15 6.76 145.07 7.6C145.03 8.44 144.99 9.3 144.95 10.18C144.95 11.06 144.95 11.9 144.95 12.7L152.75 12.34L153.05 12.58V14.92L152.75 15.22ZM165.181 18.76C165.581 18 166.021 17.2 166.501 16.36C167.021 15.52 167.601 14.74 168.241 14.02C168.881 13.3 169.601 12.7 170.401 12.22C171.241 11.74 172.181 11.5 173.221 11.5C173.941 11.5 174.741 11.62 175.621 11.86C176.541 12.06 177.161 12.34 177.481 12.7L177.961 13.24L177.241 17.86H175.261C175.141 17.3 174.821 16.8 174.301 16.36C173.821 15.88 173.061 15.64 172.021 15.64C171.021 15.64 170.101 15.94 169.261 16.54C168.421 17.1 167.681 17.82 167.041 18.7C166.441 19.58 165.961 20.52 165.601 21.52C165.281 22.48 165.121 23.36 165.121 24.16V29.5C165.121 30.38 165.121 31.1 165.121 31.66C165.161 32.18 165.181 32.64 165.181 33.04C165.221 33.4 165.241 33.72 165.241 34C165.281 34.24 165.301 34.5 165.301 34.78L165.361 35.32C165.441 35.92 165.521 36.5 165.601 37.06C165.721 37.58 165.941 37.98 166.261 38.26C166.461 38.42 166.741 38.54 167.101 38.62C167.501 38.7 167.901 38.76 168.301 38.8C168.741 38.84 169.161 38.88 169.561 38.92C169.961 38.92 170.281 38.92 170.521 38.92L170.821 39.22L170.941 40L170.821 40.24C170.541 40.24 170.081 40.22 169.441 40.18C168.841 40.14 168.201 40.1 167.521 40.06C166.841 40.06 166.181 40.04 165.541 40C164.941 40 164.501 40 164.221 40H162.781C162.501 40 162.061 40 161.461 40C160.901 40.04 160.301 40.06 159.661 40.06C159.021 40.1 158.401 40.14 157.801 40.18C157.241 40.22 156.821 40.24 156.541 40.24L156.481 40L156.541 39.16L156.781 38.92C157.421 38.92 158.041 38.9 158.641 38.86C159.281 38.78 159.761 38.58 160.081 38.26C160.401 37.98 160.601 37.62 160.681 37.18C160.801 36.74 160.901 36.12 160.981 35.32L161.041 34.78C161.081 34.38 161.101 33.88 161.101 33.28C161.141 32.68 161.161 31.66 161.161 30.22V22.84C161.161 22 161.161 21.3 161.161 20.74C161.161 20.14 161.141 19.62 161.101 19.18C161.101 18.74 161.081 18.34 161.041 17.98C161.041 17.62 161.021 17.24 160.981 16.84C160.901 16.4 160.781 16.02 160.621 15.7C160.461 15.34 160.321 15.1 160.201 14.98C159.801 14.5 159.301 14.22 158.701 14.14C158.101 14.02 157.481 13.96 156.841 13.96L156.601 13.72V12.88L156.841 12.7H157.921C158.601 12.7 159.461 12.7 160.501 12.7C161.541 12.66 162.441 12.58 163.201 12.46L165.301 12.16L165.661 12.7C165.421 13.54 165.241 14.5 165.121 15.58C165.041 16.66 165.001 17.7 165.001 18.7L165.181 18.76ZM196.161 11.5C198.521 11.5 200.621 11.92 202.461 12.76C204.301 13.56 205.841 14.66 207.081 16.06C208.361 17.42 209.321 19 209.961 20.8C210.641 22.6 210.981 24.46 210.981 26.38C210.981 28.22 210.681 30 210.081 31.72C209.481 33.44 208.561 34.96 207.321 36.28C206.081 37.6 204.541 38.66 202.701 39.46C200.861 40.26 198.721 40.66 196.281 40.66C193.761 40.66 191.561 40.24 189.681 39.4C187.801 38.56 186.241 37.46 185.001 36.1C183.801 34.74 182.901 33.2 182.301 31.48C181.701 29.72 181.401 27.92 181.401 26.08C181.401 24.12 181.741 22.26 182.421 20.5C183.101 18.74 184.061 17.2 185.301 15.88C186.581 14.52 188.121 13.46 189.921 12.7C191.761 11.9 193.841 11.5 196.161 11.5ZM196.221 38.32C197.901 38.32 199.381 37.98 200.661 37.3C201.941 36.62 203.001 35.72 203.841 34.6C204.681 33.48 205.301 32.22 205.701 30.82C206.141 29.38 206.361 27.9 206.361 26.38C206.361 24.94 206.121 23.48 205.641 22C205.201 20.52 204.541 19.2 203.661 18.04C202.781 16.84 201.701 15.88 200.421 15.16C199.141 14.4 197.661 14.02 195.981 14.02C194.221 14.02 192.701 14.38 191.421 15.1C190.181 15.78 189.141 16.68 188.301 17.8C187.501 18.92 186.901 20.2 186.501 21.64C186.101 23.08 185.901 24.52 185.901 25.96C185.901 27.44 186.121 28.92 186.561 30.4C187.041 31.84 187.721 33.16 188.601 34.36C189.481 35.52 190.561 36.48 191.841 37.24C193.121 37.96 194.581 38.32 196.221 38.32ZM230.136 12.88L230.376 12.7H231.456C232.136 12.7 232.996 12.7 234.036 12.7C235.076 12.66 235.976 12.58 236.736 12.46L238.836 12.16L239.196 12.7C239.116 12.94 239.036 13.26 238.956 13.66C238.916 14.02 238.856 14.44 238.776 14.92C238.736 15.36 238.696 15.8 238.656 16.24C238.616 16.68 238.596 17.06 238.596 17.38L238.776 17.5C239.216 16.7 239.716 15.94 240.276 15.22C240.876 14.46 241.556 13.82 242.316 13.3C243.076 12.74 243.936 12.3 244.896 11.98C245.856 11.66 246.956 11.5 248.196 11.5C249.236 11.5 250.256 11.64 251.256 11.92C252.256 12.16 253.176 12.56 254.016 13.12C254.896 13.64 255.656 14.34 256.296 15.22C256.976 16.06 257.496 17.08 257.856 18.28C258.336 17.4 258.856 16.56 259.416 15.76C260.016 14.92 260.696 14.2 261.456 13.6C262.256 12.96 263.156 12.46 264.156 12.1C265.196 11.7 266.376 11.5 267.696 11.5C268.856 11.5 269.976 11.66 271.056 11.98C272.176 12.3 273.176 12.8 274.056 13.48C274.976 14.16 275.756 15.02 276.396 16.06C277.076 17.1 277.536 18.36 277.776 19.84C277.976 20.88 278.076 21.98 278.076 23.14C278.116 24.3 278.136 25.46 278.136 26.62V35.32C278.136 36.24 278.216 36.92 278.376 37.36C278.536 37.76 278.756 38.06 279.036 38.26C279.356 38.58 279.816 38.78 280.416 38.86C281.056 38.9 281.696 38.92 282.336 38.92L282.576 39.16L282.696 40L282.576 40.24C281.856 40.16 281.076 40.1 280.236 40.06C279.436 40.02 278.616 40 277.776 40C276.296 40 274.936 40.06 273.696 40.18L273.276 39.58C273.436 39.06 273.556 38.38 273.636 37.54C273.716 36.7 273.776 35.96 273.816 35.32C273.856 34.72 273.876 33.98 273.876 33.1C273.916 32.22 273.936 31.34 273.936 30.46C273.976 29.54 273.996 28.68 273.996 27.88C273.996 27.08 273.996 26.46 273.996 26.02C273.996 25.22 273.956 24.22 273.876 23.02C273.836 21.78 273.716 20.74 273.516 19.9C273.116 18.26 272.296 17.02 271.056 16.18C269.856 15.34 268.496 14.92 266.976 14.92C265.856 14.92 264.816 15.14 263.856 15.58C262.936 15.98 262.116 16.5 261.396 17.14C260.676 17.74 260.056 18.42 259.536 19.18C259.056 19.94 258.696 20.66 258.456 21.34C258.536 22.22 258.576 23.1 258.576 23.98C258.616 24.86 258.636 25.74 258.636 26.62V35.32C258.636 36.16 258.716 36.8 258.876 37.24C259.036 37.64 259.276 37.98 259.596 38.26C259.916 38.54 260.356 38.72 260.916 38.8C261.516 38.88 262.116 38.92 262.716 38.92L263.016 39.22L263.136 40L263.016 40.24C262.736 40.24 262.316 40.22 261.756 40.18C261.196 40.14 260.596 40.1 259.956 40.06C259.316 40.06 258.716 40.04 258.156 40C257.596 40 257.176 40 256.896 40H256.056C255.776 40 255.336 40 254.736 40C254.176 40.04 253.576 40.06 252.936 40.06C252.336 40.1 251.736 40.14 251.136 40.18C250.576 40.22 250.156 40.24 249.876 40.24L249.756 40L249.876 39.16L250.116 38.92C250.756 38.92 251.376 38.9 251.976 38.86C252.616 38.78 253.096 38.58 253.416 38.26C253.736 37.98 253.936 37.62 254.016 37.18C254.096 36.74 254.176 36.12 254.256 35.32C254.296 34.72 254.316 33.98 254.316 33.1C254.356 32.22 254.376 31.34 254.376 30.46C254.416 29.54 254.436 28.68 254.436 27.88C254.476 27.08 254.496 26.46 254.496 26.02C254.496 25.62 254.496 25.16 254.496 24.64C254.496 24.08 254.476 23.52 254.436 22.96C254.396 22.4 254.336 21.86 254.256 21.34C254.216 20.82 254.136 20.34 254.016 19.9C253.576 18.26 252.756 17.02 251.556 16.18C250.356 15.34 248.996 14.92 247.476 14.92C246.156 14.92 244.956 15.22 243.876 15.82C242.796 16.38 241.856 17.08 241.056 17.92C240.296 18.72 239.696 19.58 239.256 20.5C238.856 21.38 238.656 22.14 238.656 22.78V29.5C238.656 30.38 238.656 31.1 238.656 31.66C238.696 32.22 238.716 32.7 238.716 33.1C238.756 33.5 238.776 33.88 238.776 34.24C238.816 34.56 238.856 34.92 238.896 35.32C238.976 36.16 239.056 36.8 239.136 37.24C239.256 37.64 239.476 37.98 239.796 38.26C240.116 38.54 240.556 38.72 241.116 38.8C241.716 38.88 242.316 38.92 242.916 38.92L243.216 39.22L243.336 40L243.216 40.24C242.936 40.24 242.516 40.22 241.956 40.18C241.396 40.14 240.796 40.1 240.156 40.06C239.516 40.06 238.916 40.04 238.356 40C237.796 40 237.376 40 237.096 40H236.256C235.976 40 235.536 40 234.936 40C234.376 40.04 233.776 40.06 233.136 40.06C232.536 40.1 231.936 40.14 231.336 40.18C230.776 40.22 230.356 40.24 230.076 40.24L230.016 40L230.076 39.16L230.316 38.92C230.956 38.92 231.576 38.9 232.176 38.86C232.816 38.78 233.296 38.58 233.616 38.26C233.936 37.98 234.136 37.62 234.216 37.18C234.336 36.74 234.436 36.12 234.516 35.32C234.556 34.68 234.596 34.04 234.636 33.4C234.676 32.72 234.696 31.66 234.696 30.22V22.84C234.696 22 234.696 21.3 234.696 20.74C234.696 20.14 234.676 19.62 234.636 19.18C234.636 18.74 234.616 18.34 234.576 17.98C234.576 17.62 234.556 17.24 234.516 16.84C234.436 16.4 234.316 16.02 234.156 15.7C233.996 15.34 233.856 15.1 233.736 14.98C233.336 14.5 232.836 14.22 232.236 14.14C231.636 14.02 231.016 13.96 230.376 13.96L230.136 13.72V12.88ZM312.325 23.86L311.365 24.28C309.205 24.28 306.985 24.3 304.705 24.34C302.425 24.38 300.185 24.4 297.985 24.4H290.905C290.865 24.68 290.845 24.96 290.845 25.24C290.845 25.48 290.845 25.72 290.845 25.96C290.845 27.48 291.065 28.94 291.505 30.34C291.945 31.7 292.625 32.9 293.545 33.94C294.505 34.98 295.725 35.82 297.205 36.46C298.685 37.06 300.485 37.36 302.605 37.36C303.845 37.36 305.165 37.24 306.565 37C308.005 36.72 309.325 36.24 310.525 35.56L311.125 35.92V37L310.525 37.66C309.565 38.42 308.205 39.12 306.445 39.76C304.685 40.36 302.725 40.66 300.565 40.66C298.445 40.66 296.505 40.32 294.745 39.64C293.025 38.92 291.525 37.92 290.245 36.64C289.005 35.36 288.025 33.84 287.305 32.08C286.625 30.32 286.285 28.36 286.285 26.2C286.285 24 286.645 22 287.365 20.2C288.085 18.4 289.065 16.86 290.305 15.58C291.585 14.3 293.065 13.3 294.745 12.58C296.465 11.86 298.305 11.5 300.265 11.5C301.305 11.5 302.465 11.64 303.745 11.92C305.065 12.2 306.325 12.74 307.525 13.54C308.725 14.3 309.805 15.4 310.765 16.84C311.725 18.24 312.385 20.1 312.745 22.42L312.325 23.86ZM300.325 14.2C299.045 14.2 297.885 14.42 296.845 14.86C295.845 15.26 294.945 15.82 294.145 16.54C293.385 17.22 292.745 18.04 292.225 19C291.745 19.92 291.405 20.9 291.205 21.94H293.545C295.705 21.94 297.805 21.92 299.845 21.88C301.885 21.8 304.025 21.7 306.265 21.58C306.785 21.54 307.125 21.4 307.285 21.16C307.485 20.92 307.585 20.64 307.585 20.32C307.585 20.08 307.565 19.86 307.525 19.66C307.485 19.46 307.425 19.26 307.345 19.06C306.905 17.54 306.085 16.36 304.885 15.52C303.685 14.64 302.165 14.2 300.325 14.2ZM325.729 17.56C326.769 15.84 328.109 14.4 329.749 13.24C331.389 12.08 333.429 11.5 335.869 11.5C336.989 11.5 338.109 11.66 339.229 11.98C340.349 12.3 341.369 12.8 342.289 13.48C343.249 14.16 344.029 15.04 344.629 16.12C345.269 17.16 345.689 18.4 345.889 19.84C346.009 20.88 346.069 21.98 346.069 23.14C346.109 24.3 346.129 25.46 346.129 26.62C346.129 28.06 346.129 29.52 346.129 31C346.169 32.44 346.189 33.88 346.189 35.32C346.269 36.24 346.369 36.92 346.489 37.36C346.609 37.76 346.789 38.06 347.029 38.26C347.389 38.58 347.869 38.78 348.469 38.86C349.109 38.9 349.749 38.92 350.389 38.92L350.569 39.16L350.689 40L350.569 40.24C349.889 40.16 349.129 40.1 348.289 40.06C347.449 40.02 346.629 40 345.829 40C344.309 40 342.929 40.06 341.689 40.18L341.269 39.58C341.429 39.06 341.549 38.38 341.629 37.54C341.709 36.7 341.769 35.96 341.809 35.32C341.889 33.64 341.949 32 341.989 30.4C342.029 28.76 342.049 27.4 342.049 26.32C342.049 25.4 342.009 24.4 341.929 23.32C341.889 22.24 341.769 21.3 341.569 20.5C341.169 18.62 340.349 17.22 339.109 16.3C337.869 15.38 336.429 14.92 334.789 14.92C333.469 14.92 332.229 15.2 331.069 15.76C329.949 16.32 328.989 17.02 328.189 17.86C327.389 18.66 326.749 19.52 326.269 20.44C325.829 21.32 325.609 22.08 325.609 22.72V29.5C325.609 30.38 325.609 31.1 325.609 31.66C325.609 32.22 325.609 32.7 325.609 33.1C325.649 33.5 325.689 33.88 325.729 34.24C325.769 34.56 325.809 34.92 325.849 35.32C325.929 36.16 326.009 36.8 326.089 37.24C326.209 37.64 326.429 37.98 326.749 38.26C327.069 38.54 327.509 38.72 328.069 38.8C328.669 38.88 329.269 38.92 329.869 38.92L330.169 39.22L330.289 40L330.169 40.24C329.889 40.24 329.469 40.22 328.909 40.18C328.349 40.14 327.749 40.1 327.109 40.06C326.469 40.06 325.869 40.04 325.309 40C324.749 40 324.329 40 324.049 40H323.209C322.929 40 322.489 40 321.889 40C321.329 40.04 320.729 40.06 320.089 40.06C319.489 40.1 318.889 40.14 318.289 40.18C317.729 40.22 317.309 40.24 317.029 40.24L316.969 40L317.029 39.16L317.269 38.92C317.909 38.92 318.529 38.9 319.129 38.86C319.769 38.78 320.249 38.58 320.569 38.26C320.889 37.98 321.089 37.62 321.169 37.18C321.289 36.74 321.389 36.12 321.469 35.32C321.509 34.68 321.549 34.04 321.589 33.4C321.629 32.72 321.649 31.66 321.649 30.22V22.84C321.649 22 321.649 21.3 321.649 20.74C321.649 20.14 321.629 19.62 321.589 19.18C321.589 18.74 321.569 18.34 321.529 17.98C321.529 17.62 321.509 17.24 321.469 16.84C321.389 16.4 321.269 16.02 321.109 15.7C320.949 15.34 320.809 15.1 320.689 14.98C320.289 14.5 319.789 14.22 319.189 14.14C318.589 14.02 317.969 13.96 317.329 13.96L317.089 13.72V12.88L317.329 12.7H318.409C319.089 12.7 319.949 12.7 320.989 12.7C322.029 12.66 322.929 12.58 323.689 12.46L325.789 12.16L326.149 12.7C325.949 13.22 325.809 13.94 325.729 14.86C325.649 15.74 325.589 16.6 325.549 17.44L325.729 17.56ZM377.351 34.84C376.311 36.52 374.971 37.92 373.331 39.04C371.731 40.12 369.751 40.66 367.391 40.66C366.231 40.66 365.111 40.52 364.031 40.24C362.991 40 362.011 39.58 361.091 38.98C360.211 38.38 359.451 37.58 358.811 36.58C358.171 35.58 357.711 34.32 357.431 32.8C357.231 31.76 357.131 30.68 357.131 29.56C357.171 28.4 357.171 27.24 357.131 26.08C357.131 25.56 357.111 24.86 357.071 23.98C357.071 23.06 357.071 22.14 357.071 21.22C357.071 20.26 357.071 19.38 357.071 18.58C357.071 17.78 357.071 17.2 357.071 16.84C357.071 16.4 356.971 16.02 356.771 15.7C356.571 15.34 356.411 15.08 356.291 14.92C355.891 14.48 355.391 14.22 354.791 14.14C354.191 14.02 353.571 13.96 352.931 13.96L352.751 13.72V12.88L352.931 12.7H354.011C354.691 12.7 355.551 12.7 356.591 12.7C357.631 12.66 358.531 12.58 359.291 12.46L361.391 12.16L361.751 12.7C361.671 12.86 361.611 13.16 361.571 13.6C361.531 14 361.491 14.44 361.451 14.92C361.411 15.4 361.391 15.86 361.391 16.3C361.391 16.74 361.391 17.08 361.391 17.32C361.391 18 361.371 18.76 361.331 19.6C361.331 20.4 361.311 21.22 361.271 22.06C361.271 22.9 361.251 23.7 361.211 24.46C361.211 25.22 361.211 25.86 361.211 26.38C361.211 27.26 361.231 28.26 361.271 29.38C361.351 30.46 361.491 31.4 361.691 32.2C362.091 34.08 362.911 35.48 364.151 36.4C365.391 37.32 366.831 37.78 368.471 37.78C369.711 37.78 370.851 37.54 371.891 37.06C372.931 36.54 373.831 35.92 374.591 35.2C375.391 34.48 376.031 33.72 376.511 32.92C377.031 32.08 377.371 31.32 377.531 30.64V22.84C377.531 22 377.511 21.3 377.471 20.74C377.471 20.14 377.451 19.62 377.411 19.18C377.411 18.74 377.391 18.34 377.351 17.98C377.351 17.62 377.331 17.24 377.291 16.84C377.211 16.4 377.091 16.02 376.931 15.7C376.811 15.34 376.691 15.1 376.571 14.98C376.171 14.5 375.671 14.22 375.071 14.14C374.471 14.02 373.851 13.96 373.211 13.96L372.971 13.72V12.88L373.211 12.7H374.291C374.971 12.7 375.831 12.7 376.871 12.7C377.911 12.66 378.791 12.58 379.511 12.46L381.611 12.16L381.971 12.7C381.891 12.86 381.831 13.16 381.791 13.6C381.751 14 381.711 14.44 381.671 14.92C381.631 15.4 381.611 15.86 381.611 16.3C381.611 16.74 381.611 17.08 381.611 17.32C381.611 17.64 381.591 17.94 381.551 18.22C381.551 18.5 381.551 18.84 381.551 19.24C381.551 19.64 381.531 20.12 381.491 20.68C381.491 21.2 381.491 21.9 381.491 22.78V29.5C381.491 30.38 381.491 31.1 381.491 31.66C381.531 32.22 381.551 32.7 381.551 33.1C381.591 33.5 381.611 33.88 381.611 34.24C381.651 34.56 381.671 34.92 381.671 35.32C381.751 36.24 381.851 36.92 381.971 37.36C382.091 37.76 382.291 38.06 382.571 38.26C382.891 38.58 383.351 38.78 383.951 38.86C384.591 38.9 385.231 38.92 385.871 38.92L386.111 39.16L386.231 40L386.111 40.24C385.391 40.16 384.611 40.1 383.771 40.06C382.931 40.02 382.111 40 381.311 40C379.791 40 378.411 40.06 377.171 40.18L376.811 39.58C376.931 39.06 377.051 38.38 377.171 37.54C377.331 36.7 377.451 35.84 377.531 34.96L377.351 34.84Z" fill="white"/>
</svg>
